<svg width="37" height="32" viewBox="0 0 37 32" fill="none" xmlns="http://www.w3.org/2000/svg">
<path d="M0.436733 14.3343C0.413265 14.3654 0.389793 14.3958 0.36771 14.4282C0.346313 14.46 0.328362 14.4924 0.309036 14.5248C0.291782 14.5538 0.273842 14.5821 0.257969 14.6118C0.240021 14.6449 0.224838 14.6794 0.208961 14.7133C0.194469 14.7443 0.179276 14.774 0.166161 14.8058C0.152359 14.8389 0.141319 14.8727 0.129585 14.9058C0.117161 14.9397 0.10474 14.9735 0.0943871 15.008C0.084034 15.0418 0.0764351 15.0763 0.0681534 15.1101C0.0591812 15.1453 0.0495148 15.1798 0.042614 15.2157C0.0350189 15.2558 0.0301933 15.2965 0.023983 15.3372C0.0198402 15.3676 0.0136299 15.3966 0.0108719 15.4276C-0.00362396 15.5719 -0.00362396 15.7168 0.0108719 15.8611C0.0136299 15.8915 0.0191498 15.9211 0.023983 15.9515C0.0295029 15.9922 0.0343323 16.033 0.042614 16.073C0.0495148 16.1089 0.0598717 16.1434 0.0681534 16.1786C0.0764351 16.2124 0.084034 16.2469 0.0943871 16.2807C0.10474 16.3152 0.117851 16.3491 0.129585 16.3829C0.141319 16.4167 0.153046 16.4498 0.166161 16.483C0.179276 16.5147 0.194469 16.5444 0.208961 16.5755C0.224838 16.6093 0.240021 16.6438 0.257969 16.6769C0.273842 16.7066 0.291782 16.7349 0.309036 16.7639C0.328362 16.7963 0.346313 16.8288 0.36771 16.8605C0.389793 16.893 0.413265 16.9233 0.436733 16.9544C0.456059 16.9806 0.474689 17.0068 0.495396 17.0331C0.540951 17.089 0.589268 17.1421 0.640347 17.1932L14.0967 30.6489C14.9512 31.5034 16.3378 31.5034 17.1923 30.6489C18.0475 29.7944 18.0475 28.4084 17.1923 27.5533L7.47275 17.8337L34.8113 17.8337C36.0206 17.8337 37 16.8536 37 15.6451C37 14.4365 36.0199 13.4564 34.8113 13.4564L7.47275 13.4564L17.1923 3.73683C18.0475 2.88235 18.0475 1.4964 17.1923 0.641232C16.7651 0.213989 16.2046 2.47955e-05 15.6449 2.47955e-05C15.0844 2.47955e-05 14.5246 0.213989 14.0974 0.641232L0.641029 14.0976C0.589954 14.1487 0.541645 14.2018 0.49609 14.2577C0.474003 14.2812 0.456059 14.3081 0.436733 14.3343Z" fill="#757575"/>
</svg>
