<svg width="1517" height="510" viewBox="0 0 1517 510" fill="none" xmlns="http://www.w3.org/2000/svg">
<rect y="510" width="506.284" height="173.806" rx="73" transform="rotate(-90 0 510)" fill="#E0E01E"/>
<rect x="167.806" y="509.536" width="506.284" height="173.806" rx="73" transform="rotate(-90 167.806 509.536)" fill="#E0E01E"/>
<rect x="335.611" y="509.071" width="506.284" height="173.806" rx="73" transform="rotate(-90 335.611 509.071)" fill="#E0E01E"/>
<rect x="503.417" y="508.606" width="506.284" height="173.806" rx="73" transform="rotate(-90 503.417 508.606)" fill="#E0E01E"/>
<rect x="671.223" y="508.142" width="506.284" height="173.806" rx="73" transform="rotate(-90 671.223 508.142)" fill="#E0E01E"/>
<rect x="839.028" y="507.677" width="506.284" height="173.806" rx="73" transform="rotate(-90 839.028 507.677)" fill="#E0E01E"/>
<rect x="1006.83" y="507.213" width="506.284" height="173.806" rx="73" transform="rotate(-90 1006.83 507.213)" fill="#E0E01E"/>
<rect x="1174.64" y="506.748" width="506.284" height="173.806" rx="73" transform="rotate(-90 1174.64 506.748)" fill="#E0E01E"/>
<rect x="1342.45" y="506.284" width="506.284" height="173.806" rx="73" transform="rotate(-90 1342.45 506.284)" fill="#E0E01E"/>
</svg>
