<svg width="817" height="599" viewBox="0 0 817 599" fill="none" xmlns="http://www.w3.org/2000/svg">
<rect y="262.848" width="290.171" height="85" rx="42.5" transform="rotate(-64.0579 0 262.848)" fill="#F1BC4C"/>
<rect x="76.7026" y="299.866" width="290.171" height="85" rx="42.5" transform="rotate(-64.0579 76.7026 299.866)" fill="#F1BC4C"/>
<rect x="153.405" y="336.884" width="290.171" height="85" rx="42.5" transform="rotate(-64.0579 153.405 336.884)" fill="#F1BC4C"/>
<rect x="230.108" y="373.903" width="290.171" height="85" rx="42.5" transform="rotate(-64.0579 230.108 373.903)" fill="#F1BC4C"/>
<rect x="306.811" y="410.921" width="290.171" height="85" rx="42.5" transform="rotate(-64.0579 306.811 410.921)" fill="#F1BC4C"/>
<rect x="383.513" y="447.939" width="290.171" height="85" rx="42.5" transform="rotate(-64.0579 383.513 447.939)" fill="#F1BC4C"/>
<rect x="460.216" y="484.958" width="290.171" height="85" rx="42.5" transform="rotate(-64.0579 460.216 484.958)" fill="#F1BC4C"/>
<rect x="536.919" y="521.976" width="290.171" height="85" rx="42.5" transform="rotate(-64.0579 536.919 521.976)" fill="#F1BC4C"/>
<rect x="613.621" y="558.994" width="290.171" height="85" rx="42.5" transform="rotate(-64.0579 613.621 558.994)" fill="#F1BC4C"/>
</svg>
