<svg width="41" height="41" viewBox="0 0 41 41" fill="none" xmlns="http://www.w3.org/2000/svg">
<path d="M3.70909 0C1.65982 0 0 1.65982 0 3.70909V29.6727C0 31.722 1.65982 33.3818 3.70909 33.3818H29.6727C31.722 33.3818 33.3818 31.722 33.3818 29.6727V3.70909C33.3818 1.65982 31.7201 0 29.6727 0H3.70909ZM27.8182 7.41818C28.2925 7.41818 28.7668 7.59894 29.1294 7.96151C29.8545 8.68663 29.8545 9.85882 29.1294 10.5839L15.108 24.6053C14.7594 24.954 14.2883 25.1487 13.7968 25.1487C13.3053 25.1487 12.8324 24.954 12.4856 24.6053L6.0816 18.2013C5.35648 17.4762 5.35648 16.304 6.0816 15.5789C6.80673 14.8538 7.97892 14.8538 8.70405 15.5789L13.7968 20.6717L26.507 7.96151C26.8695 7.59894 27.3439 7.41818 27.8182 7.41818ZM37.0909 7.41818V29.6727C37.0909 33.7694 33.7694 37.0909 29.6727 37.0909H7.41818C7.41818 39.1402 9.078 40.8 11.1273 40.8H37.0909C39.1402 40.8 40.8 39.1402 40.8 37.0909V11.1273C40.8 9.078 39.1383 7.41818 37.0909 7.41818Z" fill="#4A69F5"/>
</svg>
