<svg width="37" height="32" viewBox="0 0 37 32" fill="none" xmlns="http://www.w3.org/2000/svg">
<path d="M36.5633 16.9554C36.5867 16.9243 36.6102 16.894 36.6323 16.8615C36.6537 16.8298 36.6716 16.7973 36.691 16.7649C36.7082 16.7359 36.7262 16.7076 36.742 16.6779C36.76 16.6448 36.7752 16.6103 36.791 16.5765C36.8055 16.5454 36.8207 16.5157 36.8338 16.484C36.8476 16.4508 36.8587 16.417 36.8704 16.3839C36.8828 16.3501 36.8953 16.3163 36.9056 16.2817C36.916 16.2479 36.9236 16.2134 36.9318 16.1796C36.9408 16.1444 36.9505 16.1099 36.9574 16.074C36.965 16.034 36.9698 15.9932 36.976 15.9525C36.9802 15.9221 36.9864 15.8932 36.9891 15.8621C37.0036 15.7178 37.0036 15.5729 36.9891 15.4286C36.9864 15.3983 36.9809 15.3686 36.976 15.3382C36.9705 15.2975 36.9657 15.2568 36.9574 15.2168C36.9505 15.1809 36.9401 15.1463 36.9318 15.1111C36.9236 15.0773 36.916 15.0428 36.9056 15.009C36.8953 14.9745 36.8821 14.9407 36.8704 14.9068C36.8587 14.873 36.847 14.8399 36.8338 14.8068C36.8207 14.775 36.8055 14.7453 36.791 14.7143C36.7752 14.6805 36.76 14.6459 36.742 14.6128C36.7262 14.5831 36.7082 14.5548 36.691 14.5258C36.6716 14.4934 36.6537 14.461 36.6323 14.4292C36.6102 14.3968 36.5867 14.3664 36.5633 14.3354C36.5439 14.3091 36.5253 14.2829 36.5046 14.2567C36.459 14.2008 36.4107 14.1476 36.3597 14.0965L22.9033 0.640862C22.0488 -0.21362 20.6622 -0.21362 19.8077 0.640862C18.9525 1.49534 18.9525 2.88129 19.8077 3.73646L29.5272 13.456H2.18866C0.979409 13.456 0 14.4361 0 15.6447C0 16.8532 0.980099 17.8333 2.18866 17.8333H29.5272L19.8077 27.5529C18.9525 28.4074 18.9525 29.7933 19.8077 30.6485C20.2349 31.0757 20.7954 31.2897 21.3551 31.2897C21.9156 31.2897 22.4754 31.0757 22.9026 30.6485L36.359 17.1921C36.41 17.1411 36.4584 17.0879 36.5039 17.032C36.526 17.0085 36.5439 16.9816 36.5633 16.9554Z" fill="black"/>
</svg>
