<svg width="42" height="42" viewBox="0 0 42 42" fill="none" xmlns="http://www.w3.org/2000/svg">
<path d="M34.6078 0.599976C33.7379 0.599976 32.8678 0.932219 32.2039 1.59607L28.1 5.69998L36.6 14.2L40.7039 10.0961C42.0316 8.76837 42.0316 6.61596 40.7039 5.28826L37.0117 1.59607C36.3479 0.932219 35.4778 0.599976 34.6078 0.599976ZM24.7 9.09998L4.74163 29.0584C4.74163 29.0584 6.30183 28.9186 6.88323 29.5C7.46463 30.0814 6.98602 33.886 7.70002 34.6C8.41402 35.314 12.1946 34.8114 12.7369 35.3537C13.2792 35.896 13.2416 37.5584 13.2416 37.5584L33.2 17.6L24.7 9.09998ZM2.60002 34.6L0.996313 39.1422C0.933269 39.3214 0.900721 39.51 0.900024 39.7C0.900024 40.1508 1.07913 40.5832 1.39794 40.9021C1.71675 41.2209 2.14916 41.4 2.60002 41.4C2.79004 41.3993 2.97859 41.3667 3.15784 41.3037C3.16338 41.3015 3.16892 41.2993 3.17444 41.297L3.2176 41.2838C3.22093 41.2816 3.22425 41.2793 3.22756 41.2771L7.70002 39.7L5.15002 37.15L2.60002 34.6Z" fill="#4A69F5"/>
</svg>
