<svg width="41" height="41" viewBox="0 0 41 41" fill="none" xmlns="http://www.w3.org/2000/svg">
<path d="M28.205 0.0102976C24.681 -0.12902 21.112 1.14524 18.4212 3.83595C15.063 7.19392 14.6253 11.2128 16.1562 15.0273L1.99199 29.1908C-0.663996 31.8467 -0.663996 36.1523 1.99199 38.8081C4.64797 41.464 8.95374 41.464 11.6097 38.8081L25.774 24.6446C29.5887 26.1754 33.6077 25.7377 36.9659 22.3797C40.5536 18.7921 41.6191 13.6456 40.1806 9.12279L32.3064 16.9966L25.505 15.2963L23.8046 8.49514L31.6788 0.621339C30.548 0.261728 29.3796 0.0567368 28.205 0.0102976ZM6.80085 30.5989C8.67976 30.5989 10.2016 32.1207 10.2016 33.9995C10.2016 35.8783 8.67976 37.4001 6.80085 37.4001C4.92194 37.4001 3.40011 35.8783 3.40011 33.9995C3.40011 32.1207 4.92194 30.5989 6.80085 30.5989Z" fill="#4A69F5"/>
</svg>
