<svg width="102" height="128" viewBox="0 0 102 128" fill="none" xmlns="http://www.w3.org/2000/svg">
<path d="M93.3821 72.2781C93.3821 72.2781 91.4429 72.0024 91.0263 72.4184C90.6102 72.8344 91.0644 73.8563 91.9726 73.5534C92.8808 73.251 93.3821 72.2781 93.3821 72.2781Z" fill="#D28C73"/>
<path d="M21.0204 54.6984C21.0204 54.6984 25.1208 47.935 38.3644 48.1624C51.6086 48.3898 55.1206 51.4736 55.9181 53.1619C56.7157 54.8501 60.2875 110.896 55.2234 114.001C50.1592 117.107 13.8327 117.348 12.0168 106.859C10.2004 96.3708 8.91179 62.4932 21.0204 54.6984Z" fill="#49292E"/>
<path d="M28.5639 49.5465C28.5639 49.5465 27.9205 46.563 29.2768 45.7358C30.6337 44.9086 47.8131 44.2272 48.5696 46.9518C49.3266 49.6765 49.0237 50.2225 49.0237 50.2225L46.8831 49.8113C46.8831 49.8113 47.1262 47.7089 45.6157 47.2548C44.1047 46.8007 30.6355 46.8762 30.5587 47.8601C30.4825 48.8439 30.5587 50.2225 30.5587 50.2225L28.5639 49.5465Z" fill="#351E22"/>
<path d="M55.9181 53.1619C55.1206 51.4736 51.6086 48.3892 38.3644 48.1624C25.1202 47.9357 21.0204 54.6984 21.0204 54.6984C18.0188 56.6303 15.8414 60.1665 14.2904 64.5504C14.2716 69.5063 14.496 74.4628 14.9682 79.4188C15.6491 85.549 15.4224 91.6786 15.8765 97.8088C16.4461 103.695 19.5565 108.629 21.8876 113.805C33.5518 116.914 51.7483 116.133 55.224 114.001C60.2875 110.896 56.7157 54.8496 55.9181 53.1619Z" fill="#351E22"/>
<path d="M65.1293 73.9549L70.2231 88.5971C70.2231 88.5971 64.1546 95.0085 62.551 95.4669C60.948 95.9246 55.2229 79.3637 55.2229 79.3637L65.1293 73.9549Z" fill="#D28C73"/>
<path d="M68.964 85.7346C68.964 85.7346 79.3838 78.3902 92.6087 73.4095L95.9066 77.5364C95.9066 77.5364 69.3075 109.035 61.0059 93.8421L68.964 85.7346Z" fill="#D28C73"/>
<path d="M57.7425 53.7152C57.7425 53.7152 66.445 72.2649 65.9867 76.3869C65.5289 80.509 56.8264 79.3638 56.8264 79.3638L57.7425 53.7152Z" fill="black"/>
<path d="M23.9073 52.7991C23.9073 52.7991 18.5831 53.0283 17.4379 56.2343C16.2926 59.4403 20.6438 119.44 23.6213 123.562C26.5981 127.684 59.8039 122.417 60.9492 119.669C62.0944 116.921 59.5753 57.6087 57.7432 53.7158C56.5979 52.1128 52.705 52.1128 52.705 52.1128L23.9073 52.7991Z" fill="black"/>
<path d="M36.216 51.6539L23.9072 52.7991C23.9072 52.7991 21.789 69.0589 40.3381 68.1428C58.8871 67.2267 52.7043 52.1128 52.7043 52.1128L43.5441 51.8836L36.216 51.6539Z" fill="#D28C73"/>
<path d="M36.1018 43.1811V57.2646H44.0025V44.5549L36.1018 43.1811Z" fill="#D28C73"/>
<path d="M44.0025 54.774V44.5549C44.0025 44.5549 36.7204 48.8578 36.1018 50.1313C41.322 56.8153 44.0025 54.774 44.0025 54.774Z" fill="#BC7A66"/>
<path d="M52.7043 52.1122L48.2297 52.0003C47.3795 54.6772 45.8394 57.1491 42.628 57.9515C38.0947 58.9232 32.343 57.1455 31.9857 52.0475L23.9072 52.7991C23.9072 52.7991 21.789 69.0588 40.3381 68.1427C58.8877 67.2267 52.7043 52.1122 52.7043 52.1122Z" fill="black"/>
<path d="M28 123.625L24.7831 128C24.7831 128 -0.965094 99.5444 0.0280064 92.2128C0.338097 89.9155 5.99776 77 5.99776 77L17.9778 77.9822L10.1759 93.3624C12.2933 95.3764 14.582 98.5435 16.7906 102.085C17.8562 103.795 18.9045 105.59 19.9052 107.388C24.4309 115.51 28 123.625 28 123.625Z" fill="#D28C73"/>
<path d="M17.4378 56.2343C17.4378 56.2343 4.15552 77.7039 4.15552 80.795C4.15552 83.8867 19.4417 85.0888 22.1894 81.8254C24.9376 78.5619 29.7466 65.1653 29.7466 65.1653C29.7466 65.1653 25.9112 54.0012 17.4378 56.2343Z" fill="black"/>
<path d="M29.746 92.3032C29.2738 102.443 26.0702 110.952 23.7543 113.357C22.5601 111.209 21.309 109.064 20.0374 107.02C26.7305 99.8054 22.655 52.9485 22.655 52.9485C22.655 52.9485 25.1844 50.2238 28.8167 52.1128C31.5419 60.2227 30.4251 77.7547 29.746 92.3032Z" fill="#49292E"/>
<path d="M55.6309 26.9794C55.6309 43.8003 45.3817 50.3574 39.1432 50.3574C32.9048 50.3574 22.6555 43.8003 22.6555 26.9794C22.6555 16.8862 30.0374 8.70367 39.1432 8.70367C48.249 8.70367 55.6309 16.8862 55.6309 26.9794Z" fill="#D28C73"/>
<path d="M32.7921 28.6308C32.7921 29.4549 32.2243 30.1231 31.5247 30.1231C30.8245 30.1231 30.2573 29.4549 30.2573 28.6308C30.2573 27.8066 30.8251 27.1384 31.5247 27.1384C32.2249 27.1378 32.7921 27.806 32.7921 28.6308Z" fill="#48282B"/>
<path d="M48.151 28.6308C48.151 29.4549 47.5832 30.1231 46.8836 30.1231C46.184 30.1231 45.6162 29.4549 45.6162 28.6308C45.6162 27.8066 46.184 27.1384 46.8836 27.1384C47.5832 27.1384 48.151 27.806 48.151 28.6308Z" fill="#48282B"/>
<path d="M34.5917 26.2054C34.6437 26.177 34.6879 26.1383 34.7181 26.0869C34.9552 25.689 34.9932 24.8388 34.5162 24.5915C34.4019 24.5323 34.2664 24.5305 34.1376 24.5305C32.502 24.5305 30.8669 24.5311 29.2313 24.5311C29.0807 24.5311 28.9253 24.5317 28.785 24.5873C28.5323 24.6877 27.8901 25.7586 28.2735 25.8692C28.4265 25.9133 28.6901 25.8517 28.8564 25.8626C29.137 25.8813 29.4169 25.9019 29.6975 25.9218C30.258 25.9611 30.8186 26.001 31.3791 26.0403C32.3496 26.1087 33.337 26.2707 34.3088 26.2707C34.4061 26.2701 34.5083 26.2514 34.5917 26.2054Z" fill="#48282B"/>
<path d="M43.6668 26.2054C43.6154 26.177 43.5706 26.1383 43.5398 26.0869C43.3028 25.689 43.2647 24.8388 43.7418 24.5915C43.856 24.5323 43.9915 24.5305 44.1203 24.5305C45.7559 24.5305 47.391 24.5311 49.0266 24.5311C49.1772 24.5311 49.3326 24.5317 49.4729 24.5873C49.7256 24.6877 50.3678 25.7586 49.9844 25.8692C49.8314 25.9133 49.5672 25.8517 49.4015 25.8626C49.1209 25.8813 48.841 25.9019 48.5604 25.9218C47.9999 25.9611 47.4393 26.001 46.8788 26.0403C45.9083 26.1087 44.9209 26.2707 43.9492 26.2707C43.8524 26.2701 43.7502 26.2514 43.6668 26.2054Z" fill="#48282B"/>
<path d="M38.8017 27.9529C38.2702 28.967 37.8536 30.0627 37.5343 31.1601C37.1231 32.5721 36.4054 34.4242 36.9181 35.8651C37.0294 36.1765 37.1945 36.4843 37.466 36.6736C37.8856 36.9663 38.4468 36.9118 38.9541 36.8447C39.2171 36.8102 39.4916 36.7709 39.7093 36.6198C39.927 36.468 40.0655 36.1669 39.9457 35.9298C39.6833 36.2945 39.1821 36.468 38.7509 36.3434C36.3806 35.6602 38.3198 29.2826 38.8017 27.9529Z" fill="#BC664B"/>
<path d="M34.4829 39.7084C34.4829 39.7084 39.5465 40.399 44.0035 39.7084C44.0035 39.7084 38.2271 47.6551 34.4829 39.7084Z" fill="white"/>
<path d="M22.7656 26.4213C22.7656 26.4213 19.6599 24.8539 18.3702 28.1918C16.7914 32.2776 21.0241 37.4729 23.7663 36.4958C26.5085 35.5186 22.7656 26.4213 22.7656 26.4213Z" fill="#D28C73"/>
<path d="M22.3678 33.6865C22.3678 33.6865 22.2087 28.0322 20.5362 28.5098C18.8637 28.9875 20.1377 31.084 20.1377 31.084C20.1377 31.084 19.7392 29.4259 20.3766 29.406C21.0139 29.386 21.4916 30.1824 22.3678 33.6865Z" fill="#C17E68"/>
<path d="M55.5204 26.4213C55.5204 26.4213 58.626 24.8539 59.9158 28.1918C61.4946 32.2776 57.2618 37.4729 54.5196 36.4958C51.7774 35.5186 55.5204 26.4213 55.5204 26.4213Z" fill="#D28C73"/>
<path d="M55.9182 33.6865C55.9182 33.6865 56.0772 28.0322 57.7498 28.5098C59.4223 28.9875 58.1476 31.084 58.1476 31.084C58.1476 31.084 58.5461 29.4259 57.9088 29.406C57.2721 29.386 56.7944 30.1824 55.9182 33.6865Z" fill="#C17E68"/>
<path d="M25.8514 16.5173C25.9529 16.5373 26.0521 16.5602 26.141 16.5971C26.5407 16.7634 26.8491 16.9744 27.3056 17.0174C27.7519 17.0591 28.2005 17.0023 28.6462 16.9527C31.8322 16.5971 35.0612 16.6292 38.2394 17.0482C39.7402 17.2459 41.2295 17.5295 42.7315 17.7182C44.4458 17.9335 46.1751 18.0254 47.9027 17.9921C48.6035 17.9788 49.3467 17.9715 50.0275 17.7877C50.5288 17.6523 51.0246 17.6474 51.5253 17.5229C51.7236 17.4739 54.6061 16.2912 54.5922 16.6358C54.6261 15.7826 54.2814 14.9554 53.8297 14.2304C53.378 13.5054 52.8181 12.8542 52.3531 12.1376C51.2641 10.4603 50.7295 8.47994 49.7113 6.75903C49.0141 5.58052 48.1022 4.54531 47.1843 3.52946C47.0755 3.40913 46.6752 3.24284 46.6304 3.0832C47.0241 4.4788 47.0815 5.96751 46.7973 7.38971C46.6268 4.84523 44.869 2.4749 42.4836 1.57333C42.5356 3.10618 42.5876 4.63964 42.6396 6.1725C42.0809 3.36257 39.9415 0.922696 37.2289 0.000564134C37.0294 -0.0671596 35.3581 5.98444 34.962 6.444C34.9959 6.02375 34.7915 5.6168 34.5218 5.29269C34.2521 4.96859 33.9171 4.70616 33.6227 4.40503C33.1069 3.87654 32.7175 3.2253 32.4974 2.52025C30.8399 4.37056 30.4874 7.03597 29.2387 9.18378C27.9895 11.3322 25.8459 12.957 25.0556 15.3128C24.9516 15.6224 24.7363 16.5572 24.9607 16.7948C25.1427 16.9883 25.5835 16.4653 25.8514 16.5173Z" fill="#1F1D28"/>
<path d="M28.1551 16.816C28.1551 16.816 23.3376 25.7906 23.5233 28.482C23.5233 28.482 22.2734 25.7108 21.0205 26.0573C21.0205 26.0573 22.7844 16.7954 26.3205 15.2807C29.856 13.7648 28.1551 16.816 28.1551 16.816Z" fill="#1F1D28"/>
<path d="M50.8166 16.816C50.8166 16.816 55.634 25.7906 55.4484 28.482C55.4484 28.482 56.6982 25.7108 57.9511 26.0573C57.9511 26.0573 56.8494 16.5838 53.3133 15.0691C49.7771 13.5532 50.8166 16.816 50.8166 16.816Z" fill="#1F1D28"/>
<path d="M49.0242 52.0003C49.0242 52.0003 56.7495 104.413 61.1903 108.857C61.1903 108.857 63.0194 105.733 61.9655 102.046C60.9115 98.3596 57.2175 54.3954 55.6472 52.5046C53.1106 49.4492 49.0242 52.0003 49.0242 52.0003Z" fill="#49292E"/>
<path d="M70.8198 74.4271L84.8961 94.8991L100.941 84.7592L86.2584 63.8991L70.8198 74.4271Z" fill="#FBAF25"/>
<path d="M100.941 84.7593L102 86.9863L86.7127 96.7815L84.8962 94.8991L100.941 84.7593Z" fill="#E2951A"/>
<path d="M100.559 84.9758L101.395 86.7541L86.284 96.337L84.8962 94.8991L100.559 84.9758Z" fill="white"/>
<path d="M93.3822 72.2781C93.3822 72.2781 89.7209 74.2252 89.9331 74.8831C90.2458 75.8542 92.9281 74.1399 92.9281 74.1399C92.9281 74.1399 88.7335 76.5907 89.8787 77.5104C90.4877 77.9996 93.9216 75.6153 93.9216 75.6153C93.9216 75.6153 91.027 78.1695 91.6178 78.7046C92.0622 79.1068 95.0288 77.0914 95.0288 77.0914C95.0288 77.0914 92.8719 79.2198 93.4203 79.8185C93.8527 80.2901 97.0762 78.9725 97.1572 77.9996C97.2377 77.0267 95.3063 72.4801 93.3822 72.2781Z" fill="#D28C73"/>
</svg>
