<svg width="95" height="133" viewBox="0 0 95 133" fill="none" xmlns="http://www.w3.org/2000/svg">
<path d="M13.8529 58.1127C13.8529 58.1127 15.3789 50.3579 20.7672 49.7473C26.1561 49.1374 35.4769 47.8764 36.4193 54.8658C37.3618 61.8552 31.6436 58.3618 31.6436 58.3618C31.6436 58.3618 34.0197 53.3672 27.6545 52.4602C18.5814 51.1676 17.8933 58.2366 17.8933 58.2366L13.8529 58.1127Z" fill="#EF5E42"/>
<path d="M36.4194 54.8657C36.4194 54.8657 14.0094 53.1174 9.74506 59.6107C5.48003 66.1039 -7.16191 93.5742 5.45642 118.951C11.4728 127 44.9116 124.561 46.5611 118.88C54.8416 100.712 36.4194 54.8657 36.4194 54.8657Z" fill="#EF5E42"/>
<path d="M36.5246 54.2419C36.5246 54.2419 27.0453 54.2419 21.6672 55.0566C13.9021 62.1636 10.1856 76.5014 8.1826 87.9962C6.49129 98.4917 6.67682 113.616 12.4753 122.738C24.2915 125.811 45.2638 123.35 46.5611 118.88C54.8415 100.712 36.5246 54.2419 36.5246 54.2419Z" fill="#D6503E"/>
<path d="M81.9314 120.982C81.9314 120.982 81.2649 123.292 81.3317 124.915C81.3985 126.538 83.531 127.85 83.531 127.85C83.531 127.85 85.1973 124.48 85.1966 123.042C85.1966 121.605 81.9314 120.982 81.9314 120.982Z" fill="#D28C73"/>
<path d="M82.8719 120.545C83.1329 120.481 84.4134 123.682 84.5436 123.896C85.0435 124.716 85.8261 125.373 86.3159 126.226C86.8198 127.103 87.1882 128.05 87.398 129.027C87.5902 129.922 87.6523 130.837 87.8095 131.737C87.8655 132.058 88.0206 132.451 88.3667 132.465C88.756 132.48 88.922 132.012 88.9584 131.648C89.119 130.057 89.0414 128.523 88.8518 126.937C89.5278 128.366 89.3321 130.039 89.9015 131.508C89.9717 131.689 90.0999 131.896 90.305 131.891C90.5141 131.886 90.6294 131.665 90.6814 131.475C90.9364 130.543 90.8905 129.572 90.842 128.62C90.7981 127.756 90.5417 126.903 90.3124 126.069C90.4055 126.243 90.4912 126.422 90.5687 126.602C91.0255 127.661 91.2704 128.848 91.3574 129.984C91.3702 130.149 91.3796 130.316 91.4451 130.469C91.5112 130.622 91.6454 130.759 91.8188 130.786C92.0563 130.823 92.2722 130.646 92.3983 130.453C92.654 130.064 92.6959 129.584 92.6803 129.127C92.6615 128.58 92.654 128.072 92.4793 127.554C92.3754 127.245 92.3032 126.919 92.2371 126.601C92.2101 126.473 92.2223 125.865 92.1494 125.794C92.5339 126.167 92.9596 128.38 93.2929 128.412C94.4256 128.693 94.2259 126.248 93.4595 124.697C92.8308 123.426 92.2155 122.619 91.4437 121.462C91.3284 121.289 90.2213 118.729 90.1147 118.756C90.1147 118.756 82.8894 120.541 82.8719 120.545Z" fill="#D28C73"/>
<path d="M70.6448 54.8658C70.6448 54.8658 76.6848 57.4029 81.9159 76.0072C86.4548 92.1508 90.1147 117.457 90.1147 117.457L80.5147 118.951L67.8889 80.1959L70.6448 54.8658Z" fill="#11AA94"/>
<path d="M24.8022 54.8658C24.8022 54.8658 8.21027 72.0972 8.21027 92.4909H16.2937L24.6484 84.5123L24.8022 54.8658Z" fill="#11AA94"/>
<path d="M40.2958 47.7949C40.2958 47.7949 46.5631 45.7185 55.1512 47.7949L52.736 51.9248L41.7044 52.8679L40.2958 47.7949Z" fill="#13B6A1"/>
<path d="M70.798 54.8658C66.4412 50.8699 52.4311 50.2877 52.4311 50.2877H47.7721H47.6749H43.0159C43.0159 50.2877 29.0058 50.8705 24.649 54.8658C20.2923 58.8617 25.9585 117.298 25.9585 117.298H71.8146C71.8146 117.298 75.1547 58.8617 70.798 54.8658Z" fill="#FBAF25"/>
<path d="M49.0795 53.8671C51.4718 53.419 52.9094 52.0765 53.8498 50.3749C52.9634 50.3098 52.4311 50.2877 52.4311 50.2877H47.7721H47.6749H43.0159C43.0159 50.2877 42.1328 50.3244 40.7417 50.4426C42.7656 52.8874 45.1167 54.563 49.0795 53.8671Z" fill="#FFC25F"/>
<path d="M43.8976 43.1289L43.0159 50.2877C45.4331 53.1851 50.1124 53.1851 52.5296 50.2877L51.6134 43.1289H43.8976Z" fill="#D28C73"/>
<path d="M43.8977 43.1289L43.3971 48.5002C46.3338 48.212 49.9121 46.8828 52.5087 45.7545L51.6128 43.1289H43.8977Z" fill="#BC7A66"/>
<path d="M66.1679 22.0495C66.1679 39.6323 58.857 46.4865 47.7727 46.4865C36.6879 46.4865 29.3775 39.6323 29.3775 22.0495C29.3775 11.499 37.6134 2.94586 47.7727 2.94586C57.932 2.94586 66.1679 11.499 66.1679 22.0495Z" fill="#D28C73"/>
<path d="M40.6871 23.7757C40.6871 24.6372 40.0536 25.3356 39.2731 25.3356C38.4918 25.3356 37.859 24.6372 37.859 23.7757C37.859 22.9142 38.4925 22.2158 39.2731 22.2158C40.0536 22.2151 40.6871 22.9136 40.6871 23.7757Z" fill="#48282B"/>
<path d="M57.8228 23.7757C57.8228 24.6372 57.1893 25.3356 56.4088 25.3356C55.6275 25.3356 54.9947 24.6372 54.9947 23.7757C54.9947 22.9142 55.6282 22.2158 56.4088 22.2158C57.1893 22.2151 57.8228 22.9136 57.8228 23.7757Z" fill="#48282B"/>
<path d="M42.7973 21.4219C42.7973 21.4219 43.472 20.1097 42.6449 19.8676C41.8184 19.6256 37.2026 19.6464 36.0092 20.439C34.8158 21.2316 39.808 20.5092 42.7973 21.4219Z" fill="#48282B"/>
<path d="M52.7468 21.4219C52.7468 21.4219 52.0722 20.1097 52.8993 19.8676C53.7264 19.6256 58.3415 19.6464 59.535 20.439C60.7291 21.2316 55.7361 20.5092 52.7468 21.4219Z" fill="#48282B"/>
<path d="M47.3916 23.0671C46.7986 24.1271 46.3338 25.2724 45.9776 26.4196C45.5188 27.8955 44.718 29.8315 45.2901 31.3377C45.4142 31.6633 45.5984 31.985 45.9013 32.1828C46.3695 32.4887 46.9956 32.4319 47.5616 32.3617C47.855 32.3257 48.1613 32.2846 48.4042 32.1266C48.6471 31.9679 48.8016 31.6531 48.668 31.4054C48.3752 31.7865 47.8166 31.9679 47.3342 31.8377C44.6897 31.1235 46.8539 24.4571 47.3916 23.0671Z" fill="#BC664B"/>
<path d="M42.1747 35.3551C42.1747 35.3551 46.7062 36.3222 53.3695 35.3551C53.3695 35.3551 47.7721 41.6916 42.1747 35.3551Z" fill="white"/>
<path d="M53.8498 6.91332C53.8498 6.91332 59.6658 15.9165 62.9169 18.9826C66.1673 22.0494 65.6249 27.1572 65.6249 27.1572C65.6249 27.1572 70.4161 22.1582 70.8101 17.0352C71.2034 11.9123 62.4049 1.97118 56.4087 2.94583C50.4126 3.92111 53.8498 6.91332 53.8498 6.91332Z" fill="#48282B"/>
<path d="M42.5201 6.91332C42.5201 6.91332 36.7034 15.9165 33.453 18.9826C30.2026 22.0488 30.745 27.1572 30.745 27.1572C30.745 27.1572 25.9538 22.1582 25.5598 17.0352C25.1665 11.9123 33.965 1.97118 39.9612 2.94583C45.9573 3.92111 42.5201 6.91332 42.5201 6.91332Z" fill="#48282B"/>
<path d="M29.5003 21.4661C29.5003 21.4661 26.0354 19.8277 24.5964 23.3168C22.835 27.5876 27.5574 33.0184 30.6168 31.9969C33.6763 30.9755 29.5003 21.4661 29.5003 21.4661Z" fill="#D28C73"/>
<path d="M29.0557 29.0603C29.0557 29.0603 28.8783 23.1499 27.0123 23.6492C25.1462 24.1485 26.5677 26.3399 26.5677 26.3399C26.5677 26.3399 26.1231 24.6068 26.8342 24.5859C27.5459 24.5651 28.0789 25.3975 29.0557 29.0603Z" fill="#C17E68"/>
<path d="M66.0438 21.4661C66.0438 21.4661 69.5087 19.8277 70.9477 23.3168C72.7092 27.5876 67.9868 33.0184 64.9273 31.9969C61.8679 30.9755 66.0438 21.4661 66.0438 21.4661Z" fill="#D28C73"/>
<path d="M66.4884 29.0603C66.4884 29.0603 66.6665 23.1499 68.5319 23.6492C70.3979 24.1485 68.9765 26.3399 68.9765 26.3399C68.9765 26.3399 69.4204 24.6068 68.71 24.5859C67.9989 24.5651 67.466 25.3975 66.4884 29.0603Z" fill="#C17E68"/>
<path d="M56.4081 8.41578C56.4081 8.41578 45.927 18.9839 31.6437 10.5781C27.7557 7.91644 24.8299 6.07081 24.8299 4.93309C24.8299 3.79536 26.5232 5.94566 31.0041 4.93309C35.4857 3.92051 44.0124 -4.27298 56.4081 2.94523C58.7706 6.73511 56.4081 8.41578 56.4081 8.41578Z" fill="#48282B"/>
<path d="M43.1691 56.8637C41.7996 55.3461 39.3574 52.2528 40.4516 50.4818C36.1542 50.8717 27.9534 51.976 24.8022 54.8664C20.4454 58.8623 20.1641 120.866 21.6665 125.611C23.1696 130.355 46.5598 132.465 46.5598 132.465C45.2436 111.238 45.8635 79.7142 45.8919 62.0897C45.0972 59.7991 44.1898 57.9951 43.1691 56.8637Z" fill="#13B6A1"/>
<path d="M42.3285 50.3351L40.2958 47.7948C40.2958 47.7948 34.9527 49.7801 36.6535 55.9403C38.3542 62.1004 38.5256 62.0985 38.5256 62.0985C38.5256 62.0985 45.0506 60.1005 45.8642 62.0985C45.8642 62.0985 43.9449 57.3207 42.3285 50.3351Z" fill="#15C8AD"/>
<path d="M52.2779 56.8637C53.6475 55.3461 56.0896 52.2528 54.9954 50.4818C59.2928 50.8717 67.4936 51.976 70.6448 54.8664C75.0016 58.8623 74.2001 120.866 72.6971 125.611C71.194 130.355 48.8866 132.465 48.8866 132.465C50.2028 111.238 49.5828 79.7142 49.5545 62.0897C50.3498 59.7991 51.2572 57.9951 52.2779 56.8637Z" fill="#13B6A1"/>
<path d="M53.1186 50.3351L55.1512 47.7948C55.1512 47.7948 60.4943 49.7801 58.7936 55.9403C57.0928 62.1004 56.9215 62.0985 56.9215 62.0985C56.9215 62.0985 50.3964 60.1005 49.5828 62.0985C49.5828 62.0985 51.5021 57.3207 53.1186 50.3351Z" fill="#15C8AD"/>
<path d="M31.0048 77.1701C31.0048 77.1701 31.8211 74.8441 33.0206 74.0951C34.2201 73.3461 36.7527 73.1369 37.4853 73.678C38.2186 74.2196 37.1898 75.528 35.5053 75.5609C33.8207 75.5938 35.9067 78.081 33.764 78.6163C31.6207 79.1523 31.0048 77.1701 31.0048 77.1701Z" fill="#D28C73"/>
<path d="M26.9178 52.9039L32.8263 51.3578C33.1245 51.2795 33.4078 51.433 33.5589 51.6859C47.7235 75.3435 42.5376 108.558 11.7629 121.669C11.7629 121.669 7.7205 115.791 8.78507 115.051C17.7604 108.808 48.8866 90.7028 26.532 53.7167C26.3417 53.4019 26.5461 53.0012 26.9178 52.9039Z" fill="#EE5D43"/>
<path d="M20.7679 95.8591C20.7679 95.8591 30.7767 89.3987 33.3538 84.3276L20.7679 95.8591Z" fill="#138A77"/>
<path d="M31.0048 77.1702C32.4829 76.5855 35.6975 75.4699 37.2148 74.982C38.1006 74.6975 38.9715 74.4125 39.8715 74.1666C40.1616 74.0869 40.5083 74.0181 40.7384 74.2014C40.8099 74.2582 40.8612 74.3341 40.9104 74.4093C41.1958 74.8372 41.3456 75.2544 41.5783 75.6905C41.7045 76.1974 41.6802 76.7492 41.9467 77.2062C42.0728 77.423 42.261 77.6095 42.3528 77.8414C42.5768 78.4078 42.1679 79.0373 42.2759 79.6327C42.346 80.0227 42.6355 80.4038 42.5053 80.7799C42.4304 80.9967 42.2273 81.1573 42.1443 81.3715C42.0607 81.589 42.1113 81.8298 42.087 82.0592C42.0377 82.5181 41.6809 82.9093 41.2538 83.1375C40.8261 83.3657 40.3323 83.4561 39.8458 83.5281C38.6194 83.7095 37.3767 83.7955 36.1354 83.7841C35.8061 83.781 35.4655 83.769 35.1686 83.635C34.749 83.4453 34.4899 83.0478 34.2599 82.6685C34.0042 82.2476 31.3037 77.0513 31.0048 77.1702Z" fill="#D28C73"/>
<path d="M29.7736 77.8414C29.7736 77.8414 14.6065 78.9235 9.74509 87.4331L29.7736 77.8414Z" fill="#138A77"/>
<path d="M9.74505 87.4331C9.74505 87.4331 17.9304 79.0898 29.7735 77.8414C33.3538 77.8414 33.3538 84.3277 33.3538 84.3277C33.3538 84.3277 22.6015 97.1296 15.4949 98.0695C7.94243 99.0682 6.65118 90.7716 9.74505 87.4331Z" fill="#13B6A1"/>
<path d="M26.9563 77.8415C26.9563 77.8415 28.6678 79.6719 30.3187 82.7002C30.9852 84.2051 32.1557 86.1911 32.1557 86.1911C32.1557 86.1911 36.5975 84.6684 36.3188 84.0243C36.0402 83.3803 33.1589 76.7328 32.0822 76.15C30.3497 75.401 26.9563 77.8415 26.9563 77.8415Z" fill="#15C8AD"/>
<path d="M79.2268 117.815L80.5154 121.96C80.5154 121.96 90.9 121.643 91.746 119.463C91.3453 115.871 90.5816 115.551 90.5816 115.551L79.2268 117.815Z" fill="#15C8AD"/>
</svg>
