<svg width="100" height="135" viewBox="0 0 100 135" fill="none" xmlns="http://www.w3.org/2000/svg">
<path d="M40.9445 70.1445C40.9445 70.1445 30.3817 90.1482 29.3049 101.28L32.5383 108.495C32.5383 108.495 33.1869 109.32 35.1263 109.527C37.0672 109.733 43.6553 83.9133 44.1338 83.3188C44.6139 82.7242 43.098 71.9975 40.9445 70.1445Z" fill="#EBE6E2"/>
<path d="M83.9952 8.15556C85.1901 8.93831 106.311 53.9267 67.501 60.1119C28.6926 66.2956 39.364 30.4232 39.364 30.4232C39.364 30.4232 53.2719 -11.946 83.9952 8.15556Z" fill="#A14F24"/>
<path d="M73.9709 119.283C74.462 117.427 84.3195 70.2138 84.3195 70.2138C84.3195 70.2138 58.0149 62.7927 41.1964 70.2138L51.9779 119.695L73.9709 119.283Z" fill="#EBE6E2"/>
<path d="M65.5616 88.0996C65.5616 92.7961 69.4687 96.6029 74.292 96.6029C79.1153 96.6029 83.0256 92.7961 83.0256 88.0996C83.0256 83.4016 79.1153 79.5947 74.292 79.5947C69.4703 79.5947 65.5616 83.4031 65.5616 88.0996Z" fill="#EBE6E2"/>
<path d="M42.9217 88.0996C42.9217 92.7961 46.832 96.6029 51.6537 96.6029C56.477 96.6029 60.3857 92.7961 60.3857 88.0996C60.3857 83.4016 56.477 79.5947 51.6537 79.5947C46.832 79.5947 42.9217 83.4031 42.9217 88.0996Z" fill="#EBE6E2"/>
<path d="M75.2633 95.2753C75.2633 95.2753 55.4915 97.2307 50.0354 93.3184C50.0354 93.3184 56.8579 108.966 75.2633 95.2753Z" fill="#DED9D5"/>
<path d="M68.7949 70.9348C68.7949 70.9348 62.9721 88.8718 62.651 87.9445C62.3267 87.0158 58.122 67.2243 58.122 67.2243C58.122 67.2243 67.5009 61.0391 68.7949 70.9348Z" fill="#D8826C"/>
<path d="M74.8305 68.1501C75.4885 66.8043 67.9859 61.5027 67.9859 61.5027C67.9859 61.5027 68.795 68.1516 66.207 71.2449L69.2247 78.4613C69.2247 78.4613 71.8127 74.3353 74.8305 68.1501Z" fill="#F5F0EB"/>
<path d="M51.6961 68.15C51.0397 66.8043 58.1661 61.5524 58.1661 61.5524C58.1661 61.5524 58.1235 69.3874 60.0614 71.2434L57.3034 78.4597C57.3034 78.4597 54.7138 74.3352 51.6961 68.15Z" fill="#F5F0EB"/>
<path d="M68.6958 54.4263C68.6958 51.9667 66.61 49.9722 64.0378 49.9722H63.5136C60.9414 49.9722 58.8556 51.9667 58.8556 54.4263V67.0271C58.8556 69.4882 60.9414 71.4812 63.5136 71.4812H64.0378C66.61 71.4812 68.6958 69.4867 68.6958 67.0271V54.4263Z" fill="#D8826C"/>
<path d="M42.8367 32.6164C42.8367 46.8248 49.7615 57.2202 61.083 57.455C73.1303 57.7049 84.0473 49.3085 84.0473 35.0986C84.0473 20.8887 79.4553 6.23175 63.5403 6.23175C47.9575 6.23175 42.8367 18.4065 42.8367 32.6164Z" fill="#F0A98F"/>
<path d="M56.7178 31.8487C56.7178 34.6003 54.3834 36.8327 51.5058 36.8327C48.6266 36.8327 46.2936 34.6003 46.2936 31.8487C46.2936 29.0985 48.6266 26.8647 51.5058 26.8647C54.3834 26.8662 56.7178 29.0985 56.7178 31.8487Z" fill="white"/>
<path d="M48.5305 31.5386C48.5305 33.8116 50.0732 35.6555 51.978 35.6555C53.8796 35.6555 55.4207 33.8116 55.4207 31.5386C55.4207 29.2656 53.8796 27.4232 51.978 27.4232C50.0732 27.4217 48.5305 29.2656 48.5305 31.5386Z" fill="#5B7F65"/>
<path d="M49.5286 31.5385C49.5286 33.1537 50.6226 34.4648 51.9779 34.4648C53.3286 34.4648 54.4243 33.1537 54.4243 31.5385C54.4243 29.9234 53.3286 28.6138 51.9779 28.6138C50.6226 28.6123 49.5286 29.9234 49.5286 31.5385Z" fill="#400404"/>
<path d="M49.3726 28.7689C49.3726 29.2099 49.9409 29.5651 50.6383 29.5651C51.3325 29.5651 51.8993 29.2099 51.8993 28.7689C51.8993 28.3308 51.3341 27.9725 50.6383 27.9725C49.9409 27.974 49.3726 28.3308 49.3726 28.7689Z" fill="white"/>
<path d="M63.5907 40.3113C63.5907 40.3113 61.0169 44.4764 58.2338 40.227L63.5907 40.3113Z" fill="#D8826C"/>
<path d="M66.2574 31.8502C66.2574 34.6019 68.5919 36.8327 71.4679 36.8327C74.3455 36.8327 76.6816 34.6019 76.6816 31.8502C76.6816 29.1016 74.3471 26.8662 71.4679 26.8662C68.5903 26.8662 66.2574 29.1016 66.2574 31.8502Z" fill="white"/>
<path d="M68.2125 31.5401C68.2125 33.8131 69.6702 35.6555 71.4679 35.6555C73.2672 35.6555 74.7265 33.8131 74.7265 31.5401C74.7265 29.2656 73.2688 27.4261 71.4679 27.4261C69.6702 27.4246 68.2125 29.2656 68.2125 31.5401Z" fill="#5B7F65"/>
<path d="M69.1571 31.54C69.1571 33.1552 70.1928 34.4618 71.4679 34.4618C72.7493 34.4618 73.7836 33.1537 73.7836 31.54C73.7836 29.9234 72.7478 28.6138 71.4679 28.6138C70.1913 28.6123 69.1571 29.9234 69.1571 31.54Z" fill="#400404"/>
<path d="M69.0059 28.7703C69.0059 29.2099 69.5443 29.5682 70.2039 29.5682C70.8603 29.5682 71.3971 29.2099 71.3971 28.7703C71.3971 28.3323 70.8603 27.9725 70.2039 27.9725C69.5443 27.974 69.0059 28.3323 69.0059 28.7703Z" fill="white"/>
<path d="M67.0524 39.777C67.0524 42.0379 69.505 43.8714 72.529 43.8714C75.5545 43.8714 78.0071 42.0364 78.0071 39.777C78.0071 37.5206 75.5545 35.6841 72.529 35.6841C69.5034 35.6826 67.0524 37.5191 67.0524 39.777Z" fill="#F08671"/>
<path d="M45.3964 39.777C45.3964 42.0379 47.8489 43.8714 50.8745 43.8714C53.8985 43.8714 56.3495 42.0364 56.3495 39.777C56.3495 37.5206 53.8969 35.6841 50.8745 35.6841C47.8473 35.6826 45.3964 37.5191 45.3964 39.777Z" fill="#F08671"/>
<path d="M42.8367 32.6164C42.8367 32.6164 37.2074 25.2601 35.5734 32.3229C34.2731 37.9466 39.5357 42.0846 42.7864 41.0354C46.0355 39.9893 42.8367 32.6164 42.8367 32.6164Z" fill="#F0A98F"/>
<path d="M42.8965 33.9244C42.8965 33.9244 38.9059 29.2852 37.8906 31.4663C36.869 33.649 37.4766 36.22 37.4766 36.22C37.4766 36.22 37.8905 33.2832 40.3195 34.644C40.3195 34.644 38.5879 39.4714 42.9074 37.6365C42.9074 37.6365 44.6029 36.0318 42.8965 33.9244Z" fill="#D8826C"/>
<path d="M84.0252 32.6164C84.0252 32.6164 89.6577 25.2601 91.2901 32.3229C92.5904 37.9466 87.3294 42.0846 84.0756 41.0354C80.8265 39.9893 84.0252 32.6164 84.0252 32.6164Z" fill="#F0A98F"/>
<path d="M83.967 33.9244C83.967 33.9244 87.956 29.2852 88.9745 31.4663C89.9962 33.649 89.3885 36.22 89.3885 36.22C89.3885 36.22 88.9745 33.2832 86.544 34.644C86.544 34.644 88.2755 39.4714 83.9544 37.6365C83.9544 37.6365 82.2621 36.0318 83.967 33.9244Z" fill="#D8826C"/>
<path d="M77.8166 25.4497C77.8166 25.4497 72.8957 19.0974 65.2656 24.5089C65.2656 24.5089 71.4176 22.1562 77.8166 25.4497Z" fill="#361D11"/>
<path d="M56.3464 24.4019C56.3464 24.4019 50.5848 18.9107 44.3872 25.4315C44.3872 25.4315 49.7474 22.1531 56.3464 24.4019Z" fill="#361D11"/>
<path d="M66.2574 31.8501C66.2574 31.8501 65.8339 28.6408 69.1192 27.0197C74.1314 24.545 76.8816 30.2666 78.4998 31.1969C78.4998 31.1969 77.4514 32.1948 76.6816 31.8501C76.6816 31.8501 71.2223 23.3107 66.2574 31.8501Z" fill="#302725"/>
<path d="M56.8107 31.239C56.8107 31.239 57.2311 28.391 53.9489 26.9519C48.9351 24.7557 46.1866 29.8345 44.5699 30.6594C44.5699 30.6594 45.6167 31.5445 46.3865 31.239C46.3865 31.239 51.8458 23.6584 56.8107 31.239Z" fill="#302725"/>
<path d="M59.0933 1.04305C59.0933 1.04305 58.155 23.3378 85.9378 32.8978C85.9378 32.8978 96.9335 -5.76084 59.0933 1.04305Z" fill="#B85B29"/>
<path d="M64.9147 2.27884C65.8057 2.64613 68.1497 11.5574 56.8297 18.6684C45.5113 25.7839 35.4837 42.7921 53.5963 50.5247C53.5963 50.5247 49.7143 56.7099 40.9807 52.0706C32.2503 47.4328 27.3987 22.9991 38.3943 9.39283C49.39 -4.21343 60.3858 0.425836 64.9147 2.27884Z" fill="#B85B29"/>
<path d="M62.9721 7.8454L64.5887 11.2488C62.3266 13.7235 61.3538 23.3107 61.3538 23.3107C57.7977 20.5259 62.9721 7.8454 62.9721 7.8454Z" fill="#B85B29"/>
<path d="M82.3787 40.9361C82.3787 42.1328 83.3184 43.1022 84.4818 43.1022C85.6419 43.1022 86.5832 42.1328 86.5832 40.9361C86.5832 39.7409 85.6419 38.773 84.4818 38.773C83.3184 38.7715 82.3787 39.7409 82.3787 40.9361Z" fill="white"/>
<path d="M74.6147 117.225C74.6147 117.225 63.9433 121.877 51.331 117.126L50.3597 113.306C50.3597 113.306 56.828 115.16 62.3266 114.851C67.8221 114.541 75.2633 113.613 75.2633 113.613L74.6147 117.225Z" fill="#9E4E23"/>
<path d="M72.6769 112.687C72.6769 112.687 73.9709 118.871 72.0284 119.799C70.0874 120.728 70.0874 120.728 70.0874 120.728L69.7647 113.307L72.6769 112.687Z" fill="#22272E"/>
<path d="M52.7225 112.068C52.7225 112.068 51.4285 118.252 53.3711 119.181C55.3105 120.108 55.3105 120.108 55.3105 120.108L55.6332 112.687L52.7225 112.068Z" fill="#22272E"/>
<path d="M58.2826 113.459L58.9311 120.108L65.8859 119.953C65.8859 119.953 66.2086 114.231 66.2086 113.304L58.2826 113.459ZM59.7387 115.846H64.913L64.7509 119.06L60.0614 119.461L59.7387 115.846Z" fill="#F2DA00"/>
<path d="M54.5486 43.2918C54.6116 43.4604 55.7796 45.8628 57.6702 47.8784C59.9465 50.3049 63.2649 51.5919 66.9485 46.3927C67.7277 45.2953 68.5211 43.8413 69.3208 42.1027C69.3208 42.1027 68.0457 43.1353 66.1897 43.6396C63.2712 44.4328 58.9233 45.9381 55.9087 44.5939H55.9024C55.4112 44.5939 54.9579 43.5959 54.5486 43.2918Z" fill="#712311"/>
<path d="M57.6702 47.5954C59.9465 50.0219 63.2648 51.449 66.9484 46.2497C64.9728 45.7469 60.329 44.9612 57.6702 47.5954Z" fill="#D5503B"/>
<path d="M55.9103 43.465C60.7131 48.5875 64.2031 45.8915 66.1913 43.039C63.2727 43.8293 58.9248 44.6376 55.9103 43.465Z" fill="white"/>
<path d="M32.7399 77.942C32.7399 77.942 42.4447 74.8141 48.4928 93.4706L18.7265 95.4334L15.8977 82.1072C15.8977 82.1072 23.3735 76.0273 32.7399 77.942Z" fill="#AB967B"/>
<path d="M19.0506 92.4424L45.7488 92.2889C45.2576 91.2683 45.0482 91.3827 44.6059 91.0425C42.6067 89.4981 39.2395 88.8448 35.2552 88.6536C33.9093 88.5919 32.4846 88.5558 31.0254 88.5693C29.5944 88.5844 28.2218 88.616 26.9577 88.7063C23.1293 88.9682 20.2548 89.7058 19.3339 91.2307C19.1308 91.5678 18.8428 91.4549 19.0506 92.4424Z" fill="#BCC1C6"/>
<path d="M25.1271 83.951L28.1558 92.4258L36.5053 92.3791L33.5616 83.8276C32.9666 83.8622 33.2562 83.9495 33.0924 83.9526C31.8835 83.9751 30.5644 83.1758 30.0937 82.3765L27.5749 82.4232C27.6741 83.227 26.9406 84.0534 25.7316 84.0714C25.5474 84.0714 25.1397 83.9857 25.1271 83.951ZM31.6852 85.5827C31.9638 86.382 31.4175 87.0384 30.4604 87.0504C29.508 87.0624 28.5037 86.4272 28.2219 85.6324C27.9386 84.8377 28.4848 84.1828 29.4435 84.1678C30.4022 84.1527 31.4081 84.7864 31.6852 85.5827Z" fill="#BCC1C6"/>
<path d="M19.0507 92.4424L45.7489 92.2889C45.2578 91.2683 45.0106 91.2728 44.6832 91.2758L19.4144 91.4534C19.0917 91.4549 18.8429 91.4549 19.0507 92.4424Z" fill="#A9ACB1"/>
<path d="M26.9784 131.324C27.2255 132.042 27.9937 132.659 28.7777 132.706L63.4002 134.434C64.1999 134.465 64.6013 133.874 64.3873 133.121L51.6348 90.6631C51.4034 89.9271 50.5676 89.2331 49.7254 89.2497L13.1853 89.6591C12.3557 89.6621 12.0157 90.3335 12.2849 91.032L26.9784 131.324Z" fill="#BA401A"/>
<path d="M0 90.3817L24.5683 92.0645C24.5683 92.0645 26.8933 81.9024 32.7398 77.942C33.1491 77.668 33.5774 77.4994 34.0166 77.4392C20.1354 76.5405 7.35301 75.5591 4.93191 76.9876C1.36166 79.098 0 90.3817 0 90.3817Z" fill="#EDDBC3"/>
<path d="M52.2283 117.898C52.5321 114.767 55.7545 115.213 58.6919 115.058C57.7773 113.717 54.98 113.656 53.4656 114.006C53.4373 111.45 58.7659 112.131 60.2094 112.542C63.4459 113.468 65.1807 114.603 68.4203 114.028V114.024C68.4203 114.024 71.8411 112.568 76.2 110.829L76.1527 118.696C71.6443 119.48 68.3826 119.965 68.3826 119.965V119.891C66.4369 120.532 64.466 120.561 63.0602 120.811C61.5962 121.071 60.0457 121.163 58.5738 121.359C57.5443 121.496 56.3353 122.083 55.3468 122.014C55.309 120.013 58.2196 119.768 59.5089 119.221C57.1791 119.276 52.3385 119.727 52.2283 117.898Z" fill="#F0A98F"/>
<path d="M79.9466 83.069C80.3023 87.6827 89.2327 106.178 89.2327 106.178C86.3456 106.731 77.0564 110.057 72.5353 111.715C71.0036 112.272 70.0197 112.637 70.0197 112.637L70.7124 120.358C71.6474 120.313 72.562 120.257 73.4483 120.189C91.1326 118.797 100 112.726 100 112.726C96.4203 83.1879 84.3149 70.2139 84.3149 70.2139C80.063 71.0147 79.9466 83.069 79.9466 83.069Z" fill="#EBE6E2"/>
<path d="M18.9201 112.544C19.2633 112.11 19.7733 111.755 20.4958 111.513C21.1554 111.295 21.9252 111.23 22.4904 111.69C23.9166 112.857 21.8732 112.953 21.0578 113.309C22.2353 113.047 24.9886 113.394 25.316 114.7C25.708 116.28 23.2585 117.48 22.2054 118.068C26.6131 118.323 23.0256 121.38 20.8847 119.369C19.2271 117.815 17.4199 114.442 18.9201 112.544Z" fill="#F0A98F"/>
</svg>
