<svg width="41" height="28" viewBox="0 0 41 28" fill="none" xmlns="http://www.w3.org/2000/svg">
<path d="M35.3369 11.3451C35.3437 11.1901 35.36 11.0378 35.36 10.88C35.36 4.87152 30.4885 0 24.48 0C20.2504 0 16.592 2.41944 14.7927 5.94456C14.0026 5.62496 13.1444 5.44 12.24 5.44C8.7992 5.44 5.98536 8.0036 5.53248 11.3206C2.31608 12.4154 0 15.4537 0 19.04C0 23.547 3.65296 27.2 8.16 27.2H32.64C37.147 27.2 40.8 23.547 40.8 19.04C40.8 15.4795 38.5166 12.4603 35.3369 11.3451ZM15.3585 13.9985L19.4385 9.91848C19.7037 9.65328 20.0518 9.52 20.4 9.52C20.7482 9.52 21.0963 9.65328 21.3615 9.91848L25.4415 13.9985C25.9733 14.5302 25.9733 15.3898 25.4415 15.9215C24.9098 16.4533 24.0502 16.4533 23.5185 15.9215L21.76 14.163V21.76C21.76 22.5107 21.1521 23.12 20.4 23.12C19.6479 23.12 19.04 22.5107 19.04 21.76V14.163L17.2815 15.9215C16.7498 16.4533 15.8902 16.4533 15.3585 15.9215C14.8267 15.3898 14.8267 14.5302 15.3585 13.9985Z" fill="#4A69F5"/>
</svg>
