<svg width="767" height="293" viewBox="0 0 767 293" fill="none" xmlns="http://www.w3.org/2000/svg">
<rect y="292.301" width="290.171" height="85" rx="42.5" transform="rotate(-90 0 292.301)" fill="#7974ED"/>
<rect x="85.168" y="292.035" width="290.171" height="85" rx="42.5" transform="rotate(-90 85.168 292.035)" fill="#7974ED"/>
<rect x="170.336" y="291.768" width="290.171" height="85" rx="42.5" transform="rotate(-90 170.336 291.768)" fill="#7974ED"/>
<rect x="255.504" y="291.502" width="290.171" height="85" rx="42.5" transform="rotate(-90 255.504 291.502)" fill="#7974ED"/>
<rect x="340.672" y="291.236" width="290.171" height="85" rx="42.5" transform="rotate(-90 340.672 291.236)" fill="#7974ED"/>
<rect x="425.84" y="290.97" width="290.171" height="85" rx="42.5" transform="rotate(-90 425.84 290.97)" fill="#7974ED"/>
<rect x="511.008" y="290.703" width="290.171" height="85" rx="42.5" transform="rotate(-90 511.008 290.703)" fill="#7974ED"/>
<rect x="596.176" y="290.437" width="290.171" height="85" rx="42.5" transform="rotate(-90 596.176 290.437)" fill="#7974ED"/>
<rect x="681.344" y="290.171" width="290.171" height="85" rx="42.5" transform="rotate(-90 681.344 290.171)" fill="#7974ED"/>
</svg>
