<svg width="143" height="137" viewBox="0 0 143 137" fill="none" xmlns="http://www.w3.org/2000/svg">
<path d="M139.747 118.724L34.4795 137L0 109.413L113.398 95.4414L139.747 118.724Z" fill="url(#paint0_linear_10_155)"/>
<path d="M13.7895 110.555L18.8534 109.981L34.4096 125.244L33.2351 128.441L13.7895 110.555Z" fill="#280F3A"/>
<path d="M16.7213 91.4727C16.7213 91.4727 20.9533 103.436 17.5302 111.419L34.0338 126.255C34.0338 126.255 37.9034 117.637 33.2707 106.217L16.7213 91.4727Z" fill="#B27449"/>
<path d="M34.2096 104.857L139.262 96.829C139.262 96.829 147.339 105.594 139.747 118.724L33.5278 130.908C33.5278 130.908 40.4808 121.396 34.2096 104.857Z" fill="url(#paint1_linear_10_155)"/>
<path d="M34.3315 105.002L139.252 97.1091L115.099 82.8724L15.4777 88.334L34.3315 105.002Z" fill="#64347C"/>
<path d="M15.4777 88.334L34.3315 105.002C34.3315 105.002 40.7951 119.727 33.5275 130.907L13.7796 112.587L13.7893 110.555L33.2349 128.441C33.2349 128.441 37.7405 118.052 33.2707 106.218L15.5878 90.5817L15.4777 88.334Z" fill="#45205B"/>
<path d="M16.7213 91.4727L33.2707 106.218C33.2707 106.218 34.9735 111.901 35.1367 114.432C34.4975 113.37 27.3094 98.946 18.4335 98.2775L16.7213 91.4727Z" fill="#8E5F3F"/>
<path opacity="0.2" d="M18.0237 109.478L18.308 108.649L34.967 122.698L34.683 123.526L18.0237 109.478Z" fill="#753B30"/>
<path opacity="0.4" d="M18.7388 107.265L35.1794 120.323L35.0978 119.058L18.637 106.56L18.7388 107.265Z" fill="#753B30"/>
<path opacity="0.2" d="M18.8444 104.326L35.1833 116.677L35.2186 115.697L18.8645 103.766L18.8444 104.326Z" fill="#753B30"/>
<path opacity="0.2" d="M18.4335 98.2778L34.8517 111.756L34.3841 110.614L17.8268 97.27L18.4335 98.2778Z" fill="#753B30"/>
<path d="M24.8375 68.4585C24.8375 68.4585 20.7451 78.5617 24.9997 87.5346L102.287 106.804C102.287 106.804 99.2268 97.6967 100.732 84.1153L24.8375 68.4585Z" fill="#EA892C"/>
<path d="M103.295 103.53L123.941 88.0264L118.99 87.8101L102 100.669L103.295 103.53Z" fill="#EA892C"/>
<path d="M118.454 71.6599L118.485 70.7895L52.0578 61.0474L24.8375 68.4584C24.8375 68.4584 100.391 84.0997 100.723 84.301C101.02 84.4813 118.604 73.9927 122.231 71.8249L118.454 71.6599Z" fill="#F7B719"/>
<path d="M121.128 74.952L102.522 86.1089C102.522 86.1089 101.067 94.7391 103.091 102.119L120.488 88.5769L121.128 74.952Z" fill="url(#paint2_linear_10_155)"/>
<path d="M103.295 103.53C103.295 103.53 101.521 93.7233 102.523 86.1089L122.925 73.82L122.892 71.8541L122.213 71.8241L100.722 84.3014C100.722 84.3014 98.5086 98.7408 102.287 106.804L124.002 89.8527L123.941 88.0269L103.295 103.53Z" fill="#FFD712"/>
<path d="M32.8682 74.2717L25.1911 72.7739C25.1911 72.7739 23.9339 79.4495 25.5303 84.5668L32.2254 86.1831C32.267 82.2187 32.478 78.2471 32.8682 74.2717Z" fill="#DD721B"/>
<path d="M86.0952 84.6587C85.3245 89.3514 85.1109 94.1453 85.1778 98.9645L96.3126 102.031C96.3126 102.031 95.6951 92.1202 97.4092 86.8666L86.0952 84.6587Z" fill="#DD721B"/>
<path d="M78.0026 83.0793L40.7065 75.8011C40.2456 79.8573 40.0547 83.9616 40.073 88.0774L76.4031 96.8466C76.7297 92.2327 77.2319 87.6381 78.0026 83.0793Z" fill="#DD721B"/>
<path d="M84.0854 84.2668L80.0007 83.4696C79.2203 88.0561 78.7197 92.6816 78.4017 97.3287L83.1534 98.4758C83.1011 93.6908 83.3247 88.9312 84.0854 84.2668Z" fill="#DD721B"/>
<path d="M38.6982 75.4095L34.876 74.6631C34.4915 78.6745 34.292 82.6781 34.2635 86.6751L38.0407 87.5865C38.0384 83.5036 38.2382 79.4333 38.6982 75.4095Z" fill="#DD721B"/>
<path opacity="0.3" d="M121.103 75.0028L102.523 86.1089C102.523 86.1089 101.86 93.3827 102.672 98.1033C102.672 98.1033 104.518 87.1775 121.103 75.0028Z" fill="#8E5729"/>
<path opacity="0.5" d="M24.9996 87.5345L71.4074 102.837L102.281 106.991L24.9996 87.5345Z" fill="#280F3A"/>
<path d="M34.0746 66.1504L28.1275 68.8183L98.8994 78.0701L102.887 73.9145L34.0746 66.1504Z" fill="#DD721B"/>
<path d="M37.6298 37.9823C37.6094 37.974 33.7836 36.5194 33.5963 41.7319C33.4085 46.9584 33.6039 65.1015 33.6039 65.1015C33.6039 65.1015 33.9975 68.2966 37.3762 68.6318C40.7546 68.9664 99.2475 78.0849 99.2475 78.0849C96.77 76.6292 96.9437 62.075 96.8958 53.0139C96.8888 51.5919 96.8689 50.1703 96.8684 48.7484C96.8684 47.4706 96.7101 45.0231 97.1691 43.8699C97.422 43.2389 97.8823 42.8775 98.2775 42.4024C95.7271 42.0932 93.1654 41.9242 90.6048 41.7483C85.6496 41.4074 80.6942 41.0644 75.7398 40.7039C70.1086 40.2938 64.4764 39.8931 58.8439 39.496C54.0412 39.1568 49.2393 38.8092 44.4371 38.4657C42.2555 38.3097 40.0735 38.1591 37.8919 38.0005C37.814 37.9959 37.7031 38.01 37.6298 37.9823Z" fill="url(#paint3_linear_10_155)"/>
<path d="M36.2208 38.0691L98.2772 42.403L119.894 39.7907L65.3175 35.2665L36.2208 38.0691Z" fill="#9B1E0E"/>
<path d="M118.665 65.7783L114.961 65.4795L114.529 66.8631L96.814 75.1452L100.226 77.955L118.662 65.8524L118.665 65.7783Z" fill="#9B1E0E"/>
<path d="M117.887 40.6484C117.887 40.6484 114.203 61.8004 115.302 66.6156L97.9315 76.4633L97.432 47.326C97.432 47.326 96.8114 43.3726 99.8778 42.946C102.944 42.5194 117.887 40.6484 117.887 40.6484Z" fill="url(#paint4_linear_10_155)"/>
<path opacity="0.2" d="M96.6974 47.7146L117.238 44.2659L117.087 45.0443L96.6689 48.508L96.6974 47.7146Z" fill="#753B30"/>
<path opacity="0.2" d="M96.5846 49.6733L116.982 46.158L116.824 46.909L96.5563 50.4665L96.5846 49.6733Z" fill="#753B30"/>
<path opacity="0.3" d="M97.6843 53.2734L116.374 49.7437L116.24 50.4189L97.6555 54.0666L97.6843 53.2734Z" fill="#753B30"/>
<path opacity="0.3" d="M97.624 54.9527L116.21 51.2479L116.113 52.1458L97.5955 55.7465L97.624 54.9527Z" fill="#753B30"/>
<path opacity="0.2" d="M97.3972 56.5322L115.984 52.9696L115.886 53.9038L97.359 57.6057L97.3972 56.5322Z" fill="#753B30"/>
<path opacity="0.2" d="M96.627 62.8335L115.447 57.9254L115.354 58.6791L96.6426 63.6279L96.627 62.8335Z" fill="#753B30"/>
<path opacity="0.3" d="M96.6754 65.2618L115.224 60.4777L115.136 61.1234L96.6914 66.0558L96.6754 65.2618Z" fill="#753B30"/>
<path opacity="0.2" d="M97.1898 70.8826L115.084 63.4663L115.1 64.1219L97.2991 71.6677L97.1898 70.8826Z" fill="#753B30"/>
<path opacity="0.2" d="M96.6514 64.0485L115.339 59.1118L115.246 59.8649L96.6673 64.842L96.6514 64.0485Z" fill="#753B30"/>
<path opacity="0.3" d="M97.9186 76.2325L98.2071 43.4343L117.887 40.6487L117.236 44.5459C117.236 44.5459 102.627 47.8339 97.9186 76.2325Z" fill="#8E5729"/>
<path d="M118.662 65.8442L101.56 75.6359C101.56 75.6359 99.7731 76.8087 98.9682 76.1479C98.1546 75.4805 98.3863 72.8996 98.3863 72.8996L98.2947 48.0648C98.2947 48.0648 97.8645 43.7232 100.365 43.5282C103.43 43.2894 119.898 41.2975 119.898 41.2975L119.953 39.7573C119.953 39.7573 99.611 41.5672 98.2767 42.4028C98.2767 42.4028 96.4546 42.6563 96.5174 47.9869C96.566 52.1472 96.6262 67.699 96.7617 75.0905C96.7831 76.2454 97.3352 77.2205 97.9979 77.6451C98.7229 78.1097 99.804 78.2049 100.341 77.9375C105.856 75.1946 116.519 68.6973 118.606 67.4184L118.662 65.8442Z" fill="#FF4B33"/>
<path opacity="0.5" d="M39.7437 42.8423L38.9688 64.4015L44.7881 65.2165L45.5729 43.3776L39.7437 42.8423Z" fill="#6D0505"/>
<path opacity="0.5" d="M84.1033 46.7438L83.1521 73.216L88.9661 74.1583L89.9298 47.3428L84.1033 46.7438Z" fill="#6D0505"/>
<path opacity="0.5" d="M49.1174 43.8123L48.3224 65.9327L79.3892 71.7765L80.2747 47.1378L49.1174 43.8123Z" fill="#6D0505"/>
<path opacity="0.3" d="M106.696 54.8821L109.877 61.8917C109.877 61.8917 110.784 54.3601 106.696 54.8821Z" fill="#8E5729"/>
<path d="M106.694 54.7652L112.078 53.7151C112.078 53.7151 115.865 55.955 114.171 60.6479L109.877 61.8919C109.877 61.8919 110.512 54.6513 106.694 54.7652Z" fill="url(#paint5_linear_10_155)"/>
<path opacity="0.3" d="M58.8436 39.4965C58.8436 39.4965 60.0064 50.848 54.2167 51.3395C47.417 51.9164 45.0633 43.5521 45.8478 38.9373L58.8436 39.4965Z" fill="#280F3A"/>
<path d="M24.1411 20.1898L77.7513 26.9565L134.244 21.0551L77.4929 2.01904L24.1411 20.1898Z" fill="url(#paint6_linear_10_155)"/>
<path d="M49.7707 37.4952C49.7707 37.4952 76.4464 42.6869 105.999 39.8026C105.999 39.8026 112.48 23.3365 108.876 20.4782C99.0908 12.7196 73.5929 6.66263 47.6784 17.8824C43.5115 19.6865 49.7707 37.4952 49.7707 37.4952Z" fill="black"/>
<path d="M24.141 20.1897L77.4929 2.01897L134.244 21.055V19.3245L77.4929 0L23.8795 18.7476L24.141 20.1897Z" fill="#ADADAD"/>
<path d="M54.1264 33.3013C57.5242 33.1311 59.0994 38.2506 59.6096 41.3593C60.1405 44.5945 59.658 47.7294 56.0526 48.0775C52.7273 48.3986 49.7767 48.0461 49.5413 43.7117C49.3426 40.038 50.18 33.498 54.1264 33.3013Z" fill="url(#paint7_linear_10_155)"/>
<path d="M57.4424 6.6338C57.4424 6.6338 53.656 6.39989 55.1569 33.4847H53.781C53.781 33.4847 51.0784 3.74955 57.4424 6.6338Z" fill="url(#paint8_linear_10_155)"/>
<g opacity="0.7">
<path d="M55.9794 46.3236C55.9889 46.5192 55.9971 46.7144 56.0031 46.9111C56.0026 46.7401 55.9936 46.5411 55.9794 46.3236Z" fill="#FFD712"/>
<path d="M55.5457 41.3315C55.6435 43.14 55.9017 45.0753 55.9793 46.3239C55.9006 44.6461 55.706 42.9978 55.5457 41.3315Z" fill="#FFD712"/>
<path d="M55.296 34.3226C51.8062 33.9254 51.9623 44.716 52.7077 46.7828V47.3017C53.7399 44.2288 53.3644 40.2301 54.3022 37.1973C53.8717 40.2967 54.6618 43.7584 54.3433 46.9498C55.6883 44.0431 54.4296 39.9154 55.3091 36.7315C55.2845 38.3043 55.4011 39.8254 55.5458 41.3316C55.4388 39.3547 55.524 37.533 56.2506 36.9389C57.1774 39.6847 55.7437 43.1677 57.5974 45.6525C58.5052 43.671 57.6947 34.5951 55.296 34.3226Z" fill="#FFD712"/>
</g>
<path d="M54.3474 33.89C55.7918 33.89 56.9627 32.5986 56.9627 31.0057C56.9627 29.4128 55.7918 28.1215 54.3474 28.1215C52.9031 28.1215 51.7322 29.4128 51.7322 31.0057C51.7322 32.5986 52.9031 33.89 54.3474 33.89Z" fill="url(#paint9_linear_10_155)"/>
<path d="M54.8705 32.3035C55.6649 32.3035 56.3089 31.5933 56.3089 30.7172C56.3089 29.8411 55.6649 29.1309 54.8705 29.1309C54.0761 29.1309 53.4321 29.8411 53.4321 30.7172C53.4321 31.5933 54.0761 32.3035 54.8705 32.3035Z" fill="#FFD712"/>
<defs>
<linearGradient id="paint0_linear_10_155" x1="95.8415" y1="117.095" x2="-15.3954" y2="113.444" gradientUnits="userSpaceOnUse">
<stop stop-color="#332920" stop-opacity="0.4"/>
<stop offset="0.4769" stop-color="#5B524B" stop-opacity="0.2569"/>
<stop offset="1" stop-color="#837C77" stop-opacity="0.1"/>
</linearGradient>
<linearGradient id="paint1_linear_10_155" x1="87.0512" y1="102.538" x2="88.9221" y2="123.328" gradientUnits="userSpaceOnUse">
<stop stop-color="#82479F"/>
<stop offset="0.102" stop-color="#64337B"/>
<stop offset="0.2869" stop-color="#562C6B"/>
<stop offset="0.4592" stop-color="#4E2761"/>
<stop offset="0.6671" stop-color="#502863"/>
<stop offset="0.7784" stop-color="#572C6B"/>
<stop offset="0.8667" stop-color="#623279"/>
<stop offset="0.8776" stop-color="#64337B"/>
<stop offset="1" stop-color="#82479F"/>
</linearGradient>
<linearGradient id="paint2_linear_10_155" x1="102.165" y1="88.1007" x2="120.631" y2="88.7643" gradientUnits="userSpaceOnUse">
<stop stop-color="#C18553"/>
<stop offset="0.1492" stop-color="#C98D5A"/>
<stop offset="0.6797" stop-color="#E3A36E"/>
<stop offset="1" stop-color="#ECAC76"/>
</linearGradient>
<linearGradient id="paint3_linear_10_155" x1="68.3788" y1="42.1872" x2="64.5128" y2="70.7712" gradientUnits="userSpaceOnUse">
<stop offset="0.0153" stop-color="#DF2000"/>
<stop offset="0.1531" stop-color="#B61306"/>
<stop offset="0.4388" stop-color="#990A0A"/>
<stop offset="0.8163" stop-color="#AD1007"/>
<stop offset="1" stop-color="#D01B02"/>
</linearGradient>
<linearGradient id="paint4_linear_10_155" x1="95.0025" y1="61.3975" x2="116.536" y2="53.3972" gradientUnits="userSpaceOnUse">
<stop stop-color="#C18553"/>
<stop offset="0.1492" stop-color="#C98D5A"/>
<stop offset="0.6797" stop-color="#E3A36E"/>
<stop offset="1" stop-color="#ECAC76"/>
</linearGradient>
<linearGradient id="paint5_linear_10_155" x1="112.464" y1="61.4888" x2="109.648" y2="54.6034" gradientUnits="userSpaceOnUse">
<stop offset="0.0153" stop-color="#DF2000"/>
<stop offset="0.6071" stop-color="#B61306"/>
<stop offset="1" stop-color="#990A0A"/>
</linearGradient>
<linearGradient id="paint6_linear_10_155" x1="79.1926" y1="4.0381" x2="79.1926" y2="28.8576" gradientUnits="userSpaceOnUse">
<stop stop-color="#5C5C5C"/>
<stop offset="0.2821" stop-color="#3E3E3E"/>
<stop offset="1"/>
</linearGradient>
<linearGradient id="paint7_linear_10_155" x1="55.3901" y1="40.6979" x2="47.2813" y2="40.9351" gradientUnits="userSpaceOnUse">
<stop stop-color="#F7B719"/>
<stop offset="1" stop-color="#DD721B"/>
</linearGradient>
<linearGradient id="paint8_linear_10_155" x1="55.3267" y1="8.59134" x2="55.3267" y2="34.0424" gradientUnits="userSpaceOnUse">
<stop stop-color="#F7B719"/>
<stop offset="1" stop-color="#DD721B"/>
</linearGradient>
<linearGradient id="paint9_linear_10_155" x1="54.3475" y1="28.5809" x2="54.3475" y2="34.0088" gradientUnits="userSpaceOnUse">
<stop stop-color="#F7B719"/>
<stop offset="1" stop-color="#DD721B"/>
</linearGradient>
</defs>
</svg>
