<svg width="167" height="172" viewBox="0 0 167 172" fill="none" xmlns="http://www.w3.org/2000/svg">
<path d="M49.4754 37.948C49.5854 37.8594 49.7043 37.7909 49.8266 37.7332C48.7005 35.4577 47.4777 33.2346 46.1614 31.0676C46.0268 30.8459 45.8911 30.6247 45.7545 30.4039C43.6223 26.9578 42.0495 23.0969 39.2838 20.1003C36.752 17.3575 33.8759 17.8351 30.9668 19.5143C26.8614 21.8839 22.8829 24.8152 19.4574 28.2335C17.6886 29.9986 16.0491 31.9038 14.5798 33.9436C13.2685 35.7639 11.7021 37.6869 12.1177 40.1385C12.5471 42.6697 14.5172 44.7062 16.0187 46.6399C18.2779 49.5496 20.9018 52.1285 23.5129 54.6933C24.2821 55.449 25.0543 56.2058 25.8427 56.9424L25.9232 56.8632L49.4754 37.948Z" fill="#EBA8CB"/>
<path d="M105.017 112.794C103.132 113.589 101.572 115.424 101.417 117.443C99.5061 116.749 97.2562 117.16 95.6933 118.488C94.1324 119.817 93.3141 122.015 93.6151 124.079C91.9173 123.595 90.0043 123.602 88.4951 124.538C86.9879 125.474 86.0558 127.497 86.6899 129.189C85.3199 128.851 83.7797 129.203 82.7628 130.205L44.881 80.17C47.3189 79.5368 49.7878 79.0236 52.2733 78.634C52.3676 78.6192 52.4611 78.6078 52.5555 78.5933C54.7556 81.2798 57.0493 83.8992 59.226 86.5467C63.2885 91.4868 67.3594 96.4192 71.4272 101.355C71.7627 101.762 72.3274 101.174 71.9954 100.769C68.0208 95.9246 64.0496 91.0769 60.0695 86.2366C57.9665 83.6794 55.9067 81.014 53.7786 78.4172C58.7628 77.7455 63.6876 77.6227 68.5882 77.9604C71.4126 81.4132 74.317 84.7959 77.2979 88.1061C77.6348 88.4802 78.1709 87.923 77.84 87.5475C75.0939 84.4283 72.4006 81.2619 69.7615 78.0473C73.1185 78.3291 76.4655 78.8234 79.8143 79.5063L105.017 112.794Z" fill="#FCC22C"/>
<path d="M52.2733 78.6339C52.3676 78.6191 52.4611 78.6076 52.5555 78.5932C50.8358 76.4931 49.1713 74.3531 47.6736 72.1199C47.5502 71.936 47.8182 71.7441 47.9639 71.8893C50.0079 73.9292 51.9189 76.1472 53.7786 78.4172C58.7628 77.7455 63.6876 77.6227 68.5882 77.9604C67.9363 77.1631 67.2845 76.366 66.6415 75.5608C64.9279 73.414 63.2385 71.2458 61.5848 69.0499C60.0906 67.0655 58.3463 65.0701 57.2279 62.8326C57.1086 62.5939 57.3985 62.3526 57.591 62.5443C59.5016 64.448 60.987 66.8923 62.6266 69.0408C64.2182 71.1261 65.8332 73.1923 67.475 75.2358C68.2319 76.1777 68.9953 77.114 69.7614 78.0474C73.1184 78.3291 76.4654 78.8233 79.8143 79.5064L60.8682 54.4814L38.8313 72.1795L44.881 80.17C47.3189 79.5367 49.7878 79.0235 52.2733 78.6339Z" fill="#F59E22"/>
<path d="M61.5676 53.9197C62.3372 53.3016 62.4755 52.1476 61.8755 51.3549L51.9657 38.2654C51.4515 37.5863 50.5566 37.3887 49.8265 37.7332C49.7042 37.7908 49.5854 37.8594 49.4753 37.9481L25.9231 56.8634L25.8426 56.9426C25.1501 57.5752 25.0381 58.6664 25.6148 59.4281L35.525 72.5175C36.125 73.31 37.2458 73.453 38.0153 72.835L38.8313 72.1796L60.8682 54.4816L61.5676 53.9197Z" fill="#847CB9"/>
<path d="M102.852 130.958C104.527 129.879 106.612 128.812 108.705 128.22L106.538 115.363C106.459 114.892 106.268 114.447 105.982 114.07L105.017 112.794C103.132 113.589 101.572 115.424 101.417 117.443C99.5061 116.749 97.2562 117.16 95.6933 118.488C94.1324 119.817 93.314 122.015 93.6151 124.079C91.9172 123.595 90.0043 123.602 88.4951 124.538C86.9879 125.474 86.0557 127.497 86.6899 129.189C85.3199 128.851 83.7797 129.203 82.7628 130.205L83.9457 131.768C84.2309 132.145 84.6036 132.444 85.0281 132.638L96.8401 138.042C97.9253 135.141 100.242 132.641 102.852 130.958Z" fill="#FFE1A3"/>
<path d="M108.952 129.693L108.705 128.22C106.612 128.812 104.527 129.879 102.852 130.958C100.242 132.641 97.9252 135.141 96.8402 138.042L97.9337 138.542L106.645 142.527C108.712 143.472 110.967 141.661 110.581 139.365L108.952 129.693Z" fill="#1A1A1A"/>
<path d="M36.0499 22.3854C36.2147 22.0865 35.7754 21.8225 35.6032 22.1163C33.2128 26.1981 30.2198 29.91 26.6942 33.0028C23.1183 36.1396 19.0827 38.311 14.8454 40.3199C14.6307 40.4218 14.7829 40.7828 15.0057 40.7113C23.856 37.8788 31.5395 30.5696 36.0499 22.3854Z" fill="#1A1A1A"/>
<path d="M62.6267 69.0408C60.9871 66.8922 59.5017 64.448 57.5911 62.5443C57.3986 62.3526 57.1087 62.5939 57.228 62.8326C58.3464 65.0701 60.0907 67.0655 61.5849 69.0499C63.2386 71.2457 64.9281 73.4141 66.6416 75.5607C67.2846 76.3659 67.9364 77.163 68.5883 77.9604C71.4127 81.4131 74.3171 84.7959 77.2979 88.106C77.635 88.4802 78.171 87.9229 77.8401 87.5474C75.094 84.4282 72.4007 81.2619 69.7616 78.0473C68.9955 77.1138 68.2321 76.1776 67.4752 75.2357C65.8333 73.1923 64.2183 71.1261 62.6267 69.0408Z" fill="#1A1A1A"/>
<path d="M87.659 100.988C90.3019 104.297 92.7893 108.104 95.8134 111.042C95.9844 111.208 96.2797 110.994 96.1474 110.777C94.055 107.345 91.0942 104.273 88.5976 101.139C85.9174 97.7733 83.345 94.2503 80.4535 91.0739C80.2813 90.8848 79.9455 91.1381 80.0977 91.3565C82.4286 94.7019 85.1203 97.8087 87.659 100.988Z" fill="#1A1A1A"/>
<path d="M47.6736 72.1198C49.1713 74.3531 50.8358 76.4931 52.5555 78.5932C54.7556 81.2796 57.0493 83.8991 59.2261 86.5465C63.2885 91.4867 67.3594 96.4191 71.4272 101.354C71.7627 101.762 72.3274 101.174 71.9954 100.769C68.0208 95.9245 64.0496 91.0767 60.0696 86.2365C57.9665 83.6792 55.9067 81.0138 53.7786 78.417C51.9189 76.1471 50.0079 73.9291 47.9639 71.8891C47.8182 71.7441 47.5501 71.936 47.6736 72.1198Z" fill="#1A1A1A"/>
<path d="M86.5147 120.561C82.5868 115.41 78.8944 109.943 74.5804 105.125C74.4677 104.999 74.2546 105.164 74.348 105.309C77.8833 110.787 82.1811 115.796 86.1228 120.964C86.343 121.253 86.733 120.847 86.5147 120.561Z" fill="#1A1A1A"/>
<path d="M44.7534 48.3303C44.8837 48.1404 44.6365 47.9358 44.4628 48.0309C43.1556 48.7461 42.0862 49.932 40.9521 50.9083C39.7277 51.9623 38.4759 52.9808 37.2228 53.9988C34.6312 56.1053 31.9134 58.0601 29.3617 60.2163C29.1397 60.4041 29.425 60.765 29.6642 60.6199C32.4291 58.9407 35.0008 56.8792 37.5203 54.8376C39.8834 52.9226 43.0176 50.8663 44.7534 48.3303Z" fill="#1A1A1A"/>
<path d="M48.5033 45.1773C49.3619 44.4868 50.2104 43.7842 51.0586 43.0797C51.3691 42.8217 50.9286 42.3754 50.6207 42.629C49.7702 43.3289 48.9216 44.0301 48.0823 44.7437C47.5543 45.1927 46.58 45.6903 46.4869 46.4349L46.5099 46.4588C47.2372 46.5286 47.965 45.6101 48.5033 45.1773Z" fill="#1A1A1A"/>
<path d="M54.1548 48.1184C50.9194 51.2817 47.7645 54.5013 44.3554 57.4723C40.9758 60.4175 37.1123 62.8836 33.8566 65.9457C33.6753 66.1161 33.9057 66.3883 34.1085 66.2819C37.883 64.2998 41.378 61.0442 44.6107 58.2453C48.0962 55.2278 51.5528 52.0687 54.6056 48.5828C54.8798 48.2698 54.4542 47.8258 54.1548 48.1184Z" fill="#1A1A1A"/>
<path d="M153.206 117.917C152.424 116.441 150.234 117.759 151.019 119.235C153.689 124.266 152.381 131.14 147.909 134.646C146.264 135.936 144.293 136.632 142.267 136.802C142.2 135.225 141.921 133.651 141.415 132.127C140.174 128.411 137.453 123.841 133.319 123.198C129.538 122.616 127.488 126.215 128.054 129.668C128.964 135.281 134.281 138.682 139.644 139.309C139.13 143.907 136.57 148.202 132.259 150.151C125.187 153.353 116.663 148.573 116.769 140.267C116.793 138.585 114.256 138.585 114.233 140.267C114.119 149.386 122.785 155.606 131.128 153.321C137.465 151.582 141.517 145.747 142.185 139.398C143.296 139.341 144.379 139.159 145.392 138.844C153.736 136.232 157.277 125.584 153.206 117.917ZM132.699 133.251C131.293 131.779 128.913 127.517 131.552 125.992C134.881 124.076 138.188 130.493 138.969 132.819C139.397 134.088 139.64 135.407 139.715 136.737C137.084 136.389 134.548 135.184 132.699 133.251Z" fill="#1A1A1A"/>
</svg>
