<svg width="73" height="128" viewBox="0 0 73 128" fill="none" xmlns="http://www.w3.org/2000/svg">
<path d="M54.2347 114.574C54.2347 114.574 66.9985 107.486 73 117.384C73 117.384 67.6437 103.133 54.2347 114.574Z" fill="#6C7514"/>
<path d="M59.8892 119.595C58.7208 120.166 58.1549 120.993 58.3516 122.239C58.3688 122.348 58.3937 122.464 58.422 122.581C58.4606 122.725 58.5062 122.866 58.5635 123.004C59.8603 126.115 64.8252 125.959 64.8252 122.208C64.8259 119.627 62.1481 118.493 59.8892 119.595ZM59.3419 122.791C59.2998 122.69 59.2646 122.584 59.2377 122.478C59.2156 122.391 59.1991 122.307 59.186 122.224C59.0397 121.302 59.4586 120.687 60.3254 120.266C61.9997 119.449 63.9846 120.289 63.9846 122.202C63.9839 124.982 60.3033 125.096 59.3419 122.791Z" fill="#A7E6F9"/>
<path d="M60.1949 125.191C60.1949 125.191 59.9354 123.536 60.5185 123.536C61.1017 123.536 63.7064 123.044 63.7623 123.088C63.8182 123.132 64.7292 124.67 64.4055 125.192C64.0818 125.713 60.8105 126.013 60.1949 125.191Z" fill="#91A828"/>
<path d="M12.9925 12.6845C12.9925 12.6845 1.86722 34.7565 16.2266 55.9169C16.2266 55.9169 47.2317 59.7571 53.3561 54.2033C53.3561 54.2033 63.3675 34.7572 57.0112 15.9998C46.8245 2.8609 12.9925 12.6845 12.9925 12.6845Z" fill="#3F2225"/>
<path d="M58.711 124.47C58.7344 121.898 57.3928 119.418 56.6488 117.01C55.3631 112.851 54.3596 108.591 54.5956 104.213C54.8944 98.6739 56.2706 93.0178 57.0477 87.5227C58.1457 79.7555 60.0257 65.7855 57.301 58.0736C54.8579 51.1608 39.023 53.3796 39.023 53.3796L33.4382 53.0407C33.4382 53.1539 33.4389 53.2671 33.4389 53.3796C31.8219 53.3796 29.4857 53.3796 29.4857 53.3796C29.4857 53.3796 13.6501 51.1602 11.207 58.0736C8.48227 65.7855 10.3623 79.7562 11.461 87.5227C12.2381 93.0178 13.6142 98.6732 13.9131 104.212C14.214 109.798 12.4789 115.096 10.7929 120.348C10.3878 121.611 9.64105 123.119 9.53684 124.44C9.42296 125.882 10.3574 125.969 11.7612 126.406C14.4928 127.256 17.3991 127.361 20.239 127.462C22.6629 127.548 25.0867 127.633 27.5105 127.719C37.5074 128.073 48.0074 128.562 57.7482 125.877C58.0153 125.803 58.2976 125.717 58.4756 125.507C58.6571 125.294 58.693 124.997 58.7048 124.718C58.7082 124.636 58.7103 124.553 58.711 124.47Z" fill="black"/>
<path d="M23.7202 105.694C29.7936 88.6532 27.4401 70.712 26.9087 53.1369C22.3178 52.8416 13.0311 52.9126 11.207 58.0736C8.48229 65.7855 10.3623 79.7562 11.461 87.5227C12.2381 93.0178 13.6143 98.6732 13.9131 104.212C14.1788 109.135 12.862 113.835 11.3913 118.477C12.9842 117.919 14.5198 117.159 15.947 116.19C19.5745 113.63 22.166 109.79 23.7202 105.694Z" fill="#EF5E43"/>
<path d="M17.504 53.6708C17.504 53.6708 8.51754 53.9769 6.01297 60.7192C3.50771 67.4608 -0.880981 89.1612 0.15563 90.2706C1.19224 91.38 7.75974 95.3519 9.57899 92.3653C11.3982 89.3787 18.2791 66.6931 18.2791 66.6931C18.2791 66.6931 20.7029 55.7539 17.504 53.6708Z" fill="#EF5E43"/>
<path d="M51.1994 53.6708C51.1994 53.6708 60.186 53.9769 62.6905 60.7192C65.1958 67.4608 69.5845 89.1612 68.5479 90.2706C67.5112 91.38 60.9437 95.3519 59.1245 92.3653C57.3052 89.3787 50.4244 66.6931 50.4244 66.6931C50.4244 66.6931 48.0006 55.7539 51.1994 53.6708Z" fill="#EF5E43"/>
<path d="M54.5957 104.213C54.8946 98.6739 56.2707 93.0179 57.0478 87.5227C58.1459 79.7556 60.0258 65.7855 57.3011 58.0736C55.6772 53.4792 48.1393 52.9187 43.2648 53.0592C43.8141 71.6693 40.1177 90.6613 47.0427 108.253C48.8233 112.975 52.332 115.62 56.613 116.893C55.3445 112.771 54.3618 108.55 54.5957 104.213Z" fill="#EF5E43"/>
<path d="M30.3437 46.0408L29.4865 53.3797C31.8365 56.3506 36.3853 56.3506 38.7353 53.3797L37.8443 46.0408H30.3437Z" fill="#D28C73"/>
<path d="M30.3437 46.0408L29.8572 51.5475C32.7123 51.2523 36.1907 49.8892 38.7153 48.7328L37.8436 46.0408H30.3437Z" fill="#BC7A66"/>
<path d="M51.9944 24.4304C51.9944 42.4562 39.5523 49.4828 34.1105 49.4828C28.6686 49.4828 16.2265 42.4562 16.2265 24.4304C16.2265 13.6139 24.233 4.84583 34.1105 4.84583C43.9872 4.84514 51.9944 13.6139 51.9944 24.4304Z" fill="#D28C73"/>
<path d="M27.2221 26.1998C27.2221 27.0828 26.6064 27.7988 25.8473 27.7988C25.0881 27.7988 24.4725 27.0828 24.4725 26.1998C24.4725 25.3168 25.0881 24.6008 25.8473 24.6008C26.6071 24.6001 27.2221 25.3161 27.2221 26.1998Z" fill="#48282B"/>
<path d="M43.8816 26.1998C43.8816 27.0828 43.266 27.7988 42.5068 27.7988C41.7477 27.7988 41.1321 27.0828 41.1321 26.1998C41.1321 25.3168 41.7477 24.6008 42.5068 24.6008C43.266 24.6008 43.8816 25.3161 43.8816 26.1998Z" fill="#48282B"/>
<path d="M28.9757 23.338C29.0413 23.293 29.0944 23.2337 29.1296 23.1559C29.1765 23.0496 29.1758 22.9289 29.1717 22.813C29.1496 22.1372 28.984 22.1318 28.3456 22.0868C26.997 21.9913 25.5174 21.9286 24.1819 22.1618C23.3958 22.2995 22.6194 22.5907 22.0231 23.1157C21.9479 23.1818 21.8706 23.2643 21.874 23.3639C21.8816 23.5725 22.1832 23.5978 22.391 23.5596C24.3048 23.2084 26.2731 23.2705 28.211 23.4505C28.4691 23.4744 28.7783 23.4723 28.9757 23.338Z" fill="#48282B"/>
<path d="M38.8925 23.338C38.827 23.293 38.7738 23.2337 38.7386 23.1559C38.6917 23.0496 38.6924 22.9289 38.6965 22.813C38.7186 22.1372 38.8843 22.1318 39.5227 22.0868C40.8712 21.9913 42.3509 21.9286 43.6864 22.1618C44.4724 22.2995 45.2489 22.5907 45.8452 23.1157C45.9204 23.1818 45.9977 23.2643 45.9942 23.3639C45.9866 23.5725 45.6844 23.5978 45.4773 23.5596C43.5635 23.2084 41.5952 23.2705 39.6572 23.4505C39.3991 23.4744 39.0892 23.4723 38.8925 23.338Z" fill="#48282B"/>
<path d="M33.7405 25.4736C33.1642 26.5605 32.7122 27.7347 32.3657 28.9109C31.9199 30.424 31.1414 32.4089 31.6977 33.9526C31.8177 34.2867 31.9972 34.6161 32.2919 34.8193C32.7467 35.1329 33.3554 35.0743 33.9062 35.0027C34.1912 34.9659 34.4886 34.9236 34.7254 34.7613C34.9614 34.599 35.1112 34.2758 34.9814 34.0222C34.6971 34.4129 34.1532 34.599 33.6853 34.4654C31.1138 33.7331 33.2174 26.898 33.7405 25.4736Z" fill="#BC664B"/>
<path d="M28.6685 38.071C28.6685 38.071 34.1104 42.285 39.5523 38.071C39.5523 38.071 34.6038 44.5897 28.6685 38.071Z" fill="#C33A21"/>
<path d="M16.3466 23.8323C16.3466 23.8323 12.9779 22.1529 11.579 25.7293C9.86673 30.1076 14.4576 35.6757 17.4322 34.6283C20.4068 33.581 16.3466 23.8323 16.3466 23.8323Z" fill="#D28C73"/>
<path d="M15.9146 31.6179C15.9146 31.6179 15.7421 25.5589 13.9277 26.0709C12.1132 26.583 13.4956 28.8291 13.4956 28.8291C13.4956 28.8291 13.0636 27.0521 13.7544 27.031C14.4467 27.0092 14.965 27.8629 15.9146 31.6179Z" fill="#C17E68"/>
<path d="M51.8743 23.8323C51.8743 23.8323 55.2429 22.1529 56.6419 25.7293C58.3541 30.1076 53.7632 35.6757 50.7887 34.6283C47.8141 33.581 51.8743 23.8323 51.8743 23.8323Z" fill="#D28C73"/>
<path d="M52.3063 31.6179C52.3063 31.6179 52.4789 25.5589 54.2933 26.0709C56.107 26.583 54.7253 28.8291 54.7253 28.8291C54.7253 28.8291 55.1574 27.0521 54.4665 27.031C53.7743 27.0092 53.256 27.8629 52.3063 31.6179Z" fill="#C17E68"/>
<path d="M38.6945 11.093C38.6945 11.093 35.8448 18.6256 18.5213 24.6001C10.677 28.829 18.5213 40.9683 18.5213 40.9683C18.5213 40.9683 5.01429 35.1752 11.2001 17.2216C17.5012 -1.06805 27.0012 -0.834847 34.604 1.38394L38.6945 11.093Z" fill="#48282B"/>
<path d="M38.6945 11.0931C38.6945 11.0931 40.5642 20.3098 53.3562 26.1991C56.2417 26.9662 55.2286 39.5194 55.2286 39.5194C55.2286 39.5194 60.2584 27.7347 58.3149 20.5655C56.3715 13.3971 51.7488 -5.18784 34.604 1.3833L38.6945 11.0931Z" fill="#48282B"/>
<path d="M9.47198 24.6002C9.47198 24.6002 1.9086 51.9668 16.2265 55.9162H19.315C19.315 55.9162 9.98615 52.3146 11.207 30.2658C11.3644 27.432 9.23595 28.0627 9.47198 24.6002Z" fill="#48282B"/>
<path d="M58.5185 22.0009C58.5185 22.0009 66.3441 51.9675 52.0262 55.9169H48.9377C48.9377 55.9169 58.2665 52.3152 57.0457 30.2664C56.8883 27.4319 58.7538 25.4634 58.5185 22.0009Z" fill="#48282B"/>
<path d="M47.7501 52.3146C47.7501 52.3146 47.9502 94.3966 54.7952 103.133C60.0514 110.302 59.3108 121.278 59.3108 121.278C59.3108 121.278 61.0328 123.219 63.683 121.058C64.2268 115.745 63.9349 110.455 57.7076 99.3278C51.481 88.1998 51.7157 52.3152 51.7157 52.3152C51.7157 52.3152 49.2346 49.3723 47.7501 52.3146Z" fill="#91A828"/>
<path d="M50.1525 72.5837H20.0928V107.744H50.1525V72.5837Z" fill="#565599"/>
<path d="M20.0928 72.5837L21.8955 70.6636H50.1525V72.5837H20.0928Z" fill="#494987"/>
<path d="M21.0645 72.5837L22.295 71.3038H50.1524V72.5837H21.0645Z" fill="white"/>
<path opacity="0.5" d="M11.0497 88.9061C11.0497 88.9061 23.3221 86.9785 41.7906 88.3034C41.7906 88.3034 12.4204 89.0125 11.0497 88.9061Z" fill="#EF5E43"/>
<path d="M41.7904 88.3035C41.7904 88.3035 43.6739 82.9078 44.6242 82.3958C45.5746 81.8837 45.1425 84.378 44.6242 85.3496C44.6698 85.2651 45.0604 85.1594 45.1467 85.1185C45.6139 84.8962 46.0666 84.6418 46.4994 84.3602C47.066 83.9913 47.6036 83.5727 48.0729 83.0879C48.5733 82.571 48.8424 81.9266 49.3614 81.4466C49.4166 81.3962 49.4767 81.3423 49.5512 81.3334C49.6948 81.3157 49.8004 81.4637 49.8473 81.5987C50.0102 82.0712 49.8832 82.5942 49.6837 83.0531C49.4256 83.6456 49.124 84.2191 48.7486 84.7462C48.5263 85.0578 48.2751 85.3503 47.9887 85.6067C48.0681 85.5419 48.1475 85.4771 48.2254 85.4103C48.6382 85.0591 49.0115 84.6643 49.34 84.2348C49.6761 83.795 49.9115 83.3095 50.2448 82.8724C50.3704 82.7081 50.5016 82.5383 50.6858 82.4421C50.8701 82.346 51.1227 82.3446 51.2642 82.496C51.3684 82.6078 51.3884 82.7728 51.3836 82.9242C51.3725 83.2645 51.2607 83.5904 51.1027 83.8904C50.9861 84.1127 50.8122 84.3125 50.672 84.5259C50.1475 85.3257 49.712 86.1644 48.9322 86.759C49.0523 86.7631 49.1572 86.682 49.2469 86.6029C49.9294 86.0015 50.3677 85.2139 50.9122 84.5C51.0696 84.2941 51.6037 83.7193 51.699 84.2518C51.7742 84.6752 51.5803 85.1212 51.3884 85.4894C51.2304 85.7928 51.0199 86.0492 50.8108 86.3179C50.5961 86.5933 50.416 86.8865 50.1586 87.1327C50.1199 87.1702 50.0764 87.2186 50.0923 87.2697C50.4402 87.1606 50.6582 86.8313 50.9288 86.5892C51.0137 86.5129 51.1213 86.4399 51.2345 86.4597C51.3491 86.4801 51.4278 86.5933 51.443 86.7072C51.4588 86.8211 51.4257 86.9356 51.3912 87.0447C51.278 87.4061 51.0703 87.7136 50.926 88.0546C50.768 88.4275 50.3974 88.7596 50.1006 89.0283C49.0543 89.9754 47.812 90.4786 46.6705 91.2423C45.5207 92.0114 44.1998 92.6817 42.7629 92.4656C39.3549 91.9535 41.7904 88.3035 41.7904 88.3035Z" fill="#D28C73"/>
<path d="M0.446169 84.967C0.446169 84.967 -1.68502 96.2465 4.01634 101.026C9.71701 105.805 43.7354 92.6987 43.7354 92.6987L41.7905 88.3034C41.7905 88.3034 15.3797 87.8943 11.0497 88.9062C6.72036 89.9188 0.446169 84.967 0.446169 84.967Z" fill="#EF5E43"/>
<path d="M11.0497 88.9062C11.0497 88.9062 7.82671 87.9278 5.32214 91.5621C5.32214 91.5621 7.18971 90.0409 11.0497 88.9062Z" fill="#C9442B"/>
<path opacity="0.5" d="M57.0471 87.5226C57.0471 87.5226 32.1636 94.3372 26.1282 98.8307L57.0471 87.5226Z" fill="#EF5E43"/>
<path d="M26.1281 98.8314C26.1281 98.8314 20.8574 96.4947 19.8291 96.8281C18.8008 97.1622 20.9368 98.558 22.0086 98.8498C21.9147 98.8246 21.5697 99.0339 21.4799 99.068C20.9961 99.2521 20.4985 99.4042 19.9947 99.5235C19.3349 99.679 18.6579 99.7799 17.9781 99.786C17.2541 99.7928 16.595 99.5453 15.8849 99.591C15.8096 99.5958 15.7289 99.6026 15.6709 99.6503C15.5598 99.7417 15.5964 99.919 15.664 100.045C15.9014 100.486 16.3742 100.753 16.849 100.923C17.4632 101.142 18.092 101.317 18.7386 101.408C19.121 101.461 19.5088 101.48 19.8933 101.45C19.7911 101.463 19.689 101.475 19.5861 101.486C19.0451 101.543 18.4971 101.541 17.956 101.484C17.4018 101.425 16.8821 101.262 16.3314 101.203C16.1243 101.18 15.909 101.159 15.7123 101.226C15.5156 101.293 15.3417 101.474 15.3569 101.68C15.3679 101.831 15.4756 101.958 15.5915 102.059C15.8503 102.284 16.1671 102.426 16.4963 102.518C16.7406 102.586 17.007 102.598 17.2596 102.643C18.2086 102.813 19.1258 103.073 20.0982 102.919C20.0189 103.008 19.8877 103.028 19.7677 103.039C18.8573 103.118 17.9753 102.895 17.0761 102.799C16.8166 102.771 16.0263 102.762 16.3549 103.195C16.6157 103.54 17.0774 103.705 17.4805 103.819C17.8124 103.913 18.1465 103.937 18.4874 103.97C18.8373 104.004 19.1776 104.075 19.5351 104.059C19.5889 104.056 19.6552 104.058 19.6814 104.105C19.3625 104.281 18.9705 104.213 18.6068 104.241C18.4923 104.25 18.3646 104.277 18.3025 104.373C18.239 104.469 18.2693 104.603 18.3418 104.693C18.415 104.782 18.5219 104.836 18.6268 104.886C18.9712 105.052 19.3404 105.113 19.6904 105.242C20.0741 105.384 20.5724 105.344 20.9741 105.314C22.3889 105.209 23.6111 104.659 24.9555 104.359C26.3103 104.058 27.7086 103.565 28.5333 102.382C30.4885 99.576 26.1281 98.8314 26.1281 98.8314Z" fill="#D28C73"/>
<path d="M68.3718 85.7594C68.3718 85.7594 71.8336 99.1655 65.8734 100.574C59.9133 101.982 27.8025 103.134 27.8025 103.134L26.1288 98.8321C26.1288 98.8321 60.1031 84.337 68.3718 85.7594Z" fill="#EF5E43"/>
<path d="M57.0471 87.5227C57.0471 87.5227 60.6041 86.0335 63.0548 86.1024C63.0548 86.1024 59.7318 85.2896 57.0471 87.5227Z" fill="#C9442B"/>
</svg>
